<?xml version="1.0" standalone="no"?>
<!DOCTYPE svg PUBLIC "-//W3C//DTD SVG 1.1//EN" "http://www.w3.org/Graphics/SVG/1.1/DTD/svg11.dtd">
<svg width="62" height="62" viewBox="-31 -31 62 62" xmlns="http://www.w3.org/2000/svg" version="1.1">
<title>OpenSCAD Model</title>
<path d="
M 0.473389,30.9964 L 1.23395,30.9754 L 1.99374,30.9358 L 2.75235,30.8776 L 3.50929,30.8007 L 4.26413,30.7053
 L 5.01639,30.5914 L 5.76562,30.4591 L 6.5114,30.3084 L 7.25323,30.1395 L 7.99071,29.9524 L 8.72337,29.7473
 L 9.45079,29.5243 L 10.1725,29.2834 L 10.8881,29.025 L 11.5971,28.749 L 12.2992,28.4557 L 12.9938,28.1454
 L 13.6806,27.818 L 14.3592,27.4739 L 15.0291,27.1132 L 15.69,26.7362 L 16.3414,26.3431 L 16.9829,25.9341
 L 17.6143,25.5095 L 18.235,25.0696 L 18.8448,24.6145 L 19.4432,24.1446 L 20.0298,23.6602 L 20.6045,23.1615
 L 21.1667,22.6489 L 21.7161,22.1226 L 22.2525,21.583 L 22.7755,21.0304 L 23.2847,20.4651 L 23.7799,19.8875
 L 24.2608,19.2979 L 24.7271,18.6967 L 25.1785,18.0843 L 25.6148,17.4609 L 26.0356,16.827 L 26.4407,16.183
 L 26.8299,15.5293 L 27.2029,14.8661 L 27.5595,14.1941 L 27.8996,13.5135 L 28.2228,12.8247 L 28.529,12.1282
 L 28.8181,11.4244 L 29.0898,10.7138 L 29.3439,9.99663 L 29.5804,9.27348 L 29.7991,8.54475 L 29.9998,7.81087
 L 30.1825,7.07228 L 30.347,6.32944 L 30.4931,5.58278 L 30.621,4.83276 L 30.7303,4.07983 L 30.8212,3.32443
 L 30.8935,2.56705 L 30.9472,1.80811 L 30.9823,1.04808 L 30.9987,0.287415 L 30.9964,-0.473389 L 30.9754,-1.23395
 L 30.9358,-1.99374 L 30.8776,-2.75235 L 30.8007,-3.50929 L 30.7053,-4.26413 L 30.5914,-5.01639 L 30.4591,-5.76562
 L 30.3084,-6.5114 L 30.1395,-7.25323 L 29.9524,-7.99071 L 29.7473,-8.72337 L 29.5243,-9.45079 L 29.2834,-10.1725
 L 29.025,-10.8881 L 28.749,-11.5971 L 28.4557,-12.2992 L 28.1454,-12.9938 L 27.818,-13.6806 L 27.4739,-14.3592
 L 27.1132,-15.0291 L 26.7362,-15.69 L 26.3431,-16.3414 L 25.9341,-16.9829 L 25.5095,-17.6143 L 25.0696,-18.235
 L 24.6145,-18.8448 L 24.1446,-19.4432 L 23.6602,-20.0298 L 23.1615,-20.6045 L 22.6489,-21.1667 L 22.1226,-21.7161
 L 21.583,-22.2525 L 21.0304,-22.7755 L 20.4651,-23.2847 L 19.8875,-23.7799 L 19.2979,-24.2608 L 18.6967,-24.7271
 L 18.0843,-25.1785 L 17.4609,-25.6148 L 16.827,-26.0356 L 16.183,-26.4407 L 15.5293,-26.8299 L 14.8661,-27.2029
 L 14.1941,-27.5595 L 13.5135,-27.8996 L 12.8247,-28.2228 L 12.1282,-28.529 L 11.4244,-28.8181 L 10.7138,-29.0898
 L 9.99663,-29.3439 L 9.27348,-29.5804 L 8.54475,-29.7991 L 7.81087,-29.9998 L 7.07228,-30.1825 L 6.32944,-30.347
 L 5.58278,-30.4931 L 4.83276,-30.621 L 4.07983,-30.7303 L 3.32443,-30.8212 L 2.56705,-30.8935 L 1.80811,-30.9472
 L 1.04808,-30.9823 L 0.287415,-30.9987 L -0.473389,-30.9964 L -1.23395,-30.9754 L -1.99374,-30.9358 L -2.75235,-30.8776
 L -3.50929,-30.8007 L -4.26413,-30.7053 L -5.01639,-30.5914 L -5.76562,-30.4591 L -6.5114,-30.3084 L -7.25323,-30.1395
 L -7.99071,-29.9524 L -8.72337,-29.7473 L -9.45079,-29.5243 L -10.1725,-29.2834 L -10.8881,-29.025 L -11.5971,-28.749
 L -12.2992,-28.4557 L -12.9938,-28.1454 L -13.6806,-27.818 L -14.3592,-27.4739 L -15.0291,-27.1132 L -15.69,-26.7362
 L -16.3414,-26.3431 L -16.9829,-25.9341 L -17.6143,-25.5095 L -18.235,-25.0696 L -18.8448,-24.6145 L -19.4432,-24.1446
 L -20.0298,-23.6602 L -20.6045,-23.1615 L -21.1667,-22.6489 L -21.7161,-22.1226 L -22.2525,-21.583 L -22.7755,-21.0304
 L -23.2847,-20.4651 L -23.7799,-19.8875 L -24.2608,-19.2979 L -24.7271,-18.6967 L -25.1785,-18.0843 L -25.6148,-17.4609
 L -26.0356,-16.827 L -26.4407,-16.183 L -26.8299,-15.5293 L -27.2029,-14.8661 L -27.5595,-14.1941 L -27.8996,-13.5135
 L -28.2228,-12.8247 L -28.529,-12.1282 L -28.8181,-11.4244 L -29.0898,-10.7138 L -29.3439,-9.99663 L -29.5804,-9.27348
 L -29.7991,-8.54475 L -29.9998,-7.81087 L -30.1825,-7.07228 L -30.347,-6.32944 L -30.4931,-5.58278 L -30.621,-4.83276
 L -30.7303,-4.07983 L -30.8212,-3.32443 L -30.8935,-2.56705 L -30.9472,-1.80811 L -30.9823,-1.04808 L -30.9987,-0.287415
 L -30.9964,0.473389 L -30.9754,1.23395 L -30.9358,1.99374 L -30.8776,2.75235 L -30.8007,3.50929 L -30.7053,4.26413
 L -30.5914,5.01639 L -30.4591,5.76562 L -30.3084,6.5114 L -30.1395,7.25323 L -29.9524,7.99071 L -29.7473,8.72337
 L -29.5243,9.45079 L -29.2834,10.1725 L -29.025,10.8881 L -28.749,11.5971 L -28.4557,12.2992 L -28.1454,12.9938
 L -27.818,13.6806 L -27.4739,14.3592 L -27.1132,15.0291 L -26.7362,15.69 L -26.3431,16.3414 L -25.9341,16.9829
 L -25.5095,17.6143 L -25.0696,18.235 L -24.6145,18.8448 L -24.1446,19.4432 L -23.6602,20.0298 L -23.1615,20.6045
 L -22.6489,21.1667 L -22.1226,21.7161 L -21.583,22.2525 L -21.0304,22.7755 L -20.4651,23.2847 L -19.8875,23.7799
 L -19.2979,24.2608 L -18.6967,24.7271 L -18.0843,25.1785 L -17.4609,25.6148 L -16.827,26.0356 L -16.183,26.4407
 L -15.5293,26.8299 L -14.8661,27.2029 L -14.1941,27.5595 L -13.5135,27.8996 L -12.8247,28.2228 L -12.1282,28.529
 L -11.4244,28.8181 L -10.7138,29.0898 L -9.99663,29.3439 L -9.27348,29.5804 L -8.54475,29.7991 L -7.81087,29.9998
 L -7.07228,30.1825 L -6.32944,30.347 L -5.58278,30.4931 L -4.83276,30.621 L -4.07983,30.7303 L -3.32443,30.8212
 L -2.56705,30.8935 L -1.80811,30.9472 L -1.04808,30.9823 L -0.287415,30.9987 z
M -5.76945,-29.4712 L -0.751923,-30.0429 L -0.180252,-25.0254 L -5.19778,-24.4537 z
M 0,-25 L 0.484009,-30.0267 L 5.51076,-29.5427 L 5.02675,-24.516 z
M 5.19778,-24.4537 L 6.71635,-29.27 L 11.5326,-27.7514 L 10.0141,-22.9351 z
M -11.7708,-27.6277 L -6.98177,-29.2301 L -5.37938,-24.441 L -10.1684,-22.8386 z
M 10.1684,-22.8386 L 12.6552,-27.2339 L 17.0504,-24.7472 L 14.5637,-20.3519 z
M -17.2577,-24.5766 L -12.9065,-27.1397 L -10.3434,-22.7885 L -14.6946,-20.2254 z
M 14.6946,-20.2254 L 18.0409,-24.0076 L 21.8231,-20.6614 L 18.4769,-16.8792 z
M -21.9903,-20.4515 L -18.2671,-23.8632 L -14.8554,-20.14 L -18.5786,-16.7283 z
M 18.5786,-16.7283 L 22.6381,-19.7321 L 25.642,-15.6726 L 21.5825,-12.6688 z
M -25.7619,-15.4325 L -22.8294,-19.5438 L -18.7181,-16.6113 L -21.6506,-12.5 z
M -0.608566,17.9897 L -1.04987,17.9693 L -1.49054,17.9382 L -1.93031,17.8962 L -2.36893,17.8434 L -2.80612,17.7799
 L -3.24161,17.7057 L -3.67516,17.6208 L -4.10649,17.5253 L -4.53534,17.4193 L -4.96147,17.3027 L -5.3846,17.1757
 L -5.80449,17.0384 L -6.22089,16.8908 L -6.63353,16.7331 L -7.04219,16.5652 L -7.44659,16.3874 L -7.84653,16.1997
 L -8.24173,16.0023 L -8.63196,15.7952 L -9.017,15.5786 L -9.39659,15.3526 L -9.77054,15.1174 L -10.1386,14.8731
 L -10.5005,14.6198 L -10.8562,14.3577 L -11.2053,14.0869 L -11.5476,13.8077 L -11.883,13.5202 L -12.2112,13.2245
 L -12.5321,12.9208 L -12.8454,12.6094 L -13.151,12.2903 L -13.4486,11.9639 L -13.7382,11.6302 L -14.0195,11.2896
 L -14.2923,10.9421 L -14.5565,10.5881 L -14.812,10.2276 L -15.0585,9.86105 L -15.296,9.48854 L -15.5242,9.11029
 L -15.7431,8.72656 L -15.9526,8.33759 L -16.1524,7.94357 L -16.3425,7.54478 L -16.5227,7.14145 L -16.693,6.73381
 L -16.8532,6.32211 L -17.0033,5.90662 L -17.1431,5.48755 L -17.2726,5.06519 L -17.3917,4.63977 L -17.5004,4.21155
 L -17.5984,3.78081 L -17.6859,3.34778 L -17.7628,2.91273 L -17.8289,2.47594 L -17.8843,2.03764 L -17.9289,1.59813
 L -17.9627,1.15765 L -17.9857,0.716476 L -17.9979,0.274872 L -17.9992,-0.166885 L -17.9897,-0.608566 L -17.9693,-1.04987
 L -17.9382,-1.49054 L -17.8962,-1.93031 L -17.8434,-2.36893 L -17.7799,-2.80612 L -17.7057,-3.24161 L -17.6208,-3.67516
 L -17.5253,-4.10649 L -17.4193,-4.53534 L -17.3027,-4.96147 L -17.1757,-5.3846 L -17.0384,-5.80449 L -16.8908,-6.22089
 L -16.7331,-6.63353 L -16.5652,-7.04219 L -16.3874,-7.44659 L -16.1997,-7.84653 L -16.0023,-8.24173 L -15.7952,-8.63196
 L -15.5786,-9.017 L -15.3526,-9.39659 L -15.1174,-9.77054 L -14.8731,-10.1386 L -14.6198,-10.5005 L -14.3577,-10.8562
 L -14.0869,-11.2053 L -13.8077,-11.5476 L -13.5202,-11.883 L -13.2245,-12.2112 L -12.9208,-12.5321 L -12.6094,-12.8454
 L -12.2903,-13.151 L -11.9639,-13.4486 L -11.6302,-13.7382 L -11.2896,-14.0195 L -10.9421,-14.2923 L -10.5881,-14.5565
 L -10.2276,-14.812 L -9.86105,-15.0585 L -9.48854,-15.296 L -9.11029,-15.5242 L -8.72656,-15.7431 L -8.33759,-15.9526
 L -7.94357,-16.1524 L -7.54478,-16.3425 L -7.14145,-16.5227 L -6.73381,-16.693 L -6.32211,-16.8532 L -5.90662,-17.0033
 L -5.48755,-17.1431 L -5.06519,-17.2726 L -4.63977,-17.3917 L -4.21155,-17.5004 L -3.78081,-17.5984 L -3.34778,-17.6859
 L -2.91273,-17.7628 L -2.47594,-17.8289 L -2.03764,-17.8843 L -1.59813,-17.9289 L -1.15765,-17.9627 L -0.716476,-17.9857
 L -0.274872,-17.9979 L 0.166885,-17.9992 L 0.608566,-17.9897 L 1.04987,-17.9693 L 1.49054,-17.9382 L 1.93031,-17.8962
 L 2.36893,-17.8434 L 2.80612,-17.7799 L 3.24161,-17.7057 L 3.67516,-17.6208 L 4.10649,-17.5253 L 4.53534,-17.4193
 L 4.96147,-17.3027 L 5.3846,-17.1757 L 5.80449,-17.0384 L 6.22089,-16.8908 L 6.63353,-16.7331 L 7.04219,-16.5652
 L 7.44659,-16.3874 L 7.84653,-16.1997 L 8.24173,-16.0023 L 8.63196,-15.7952 L 9.017,-15.5786 L 9.39659,-15.3526
 L 9.77054,-15.1174 L 10.1386,-14.8731 L 10.5005,-14.6198 L 10.8562,-14.3577 L 11.2053,-14.0869 L 11.5476,-13.8077
 L 11.883,-13.5202 L 12.2112,-13.2245 L 12.5321,-12.9208 L 12.8454,-12.6094 L 13.151,-12.2903 L 13.4486,-11.9639
 L 13.7382,-11.6302 L 14.0195,-11.2896 L 14.2923,-10.9421 L 14.5565,-10.5881 L 14.812,-10.2276 L 15.0585,-9.86105
 L 15.296,-9.48854 L 15.5242,-9.11029 L 15.7431,-8.72656 L 15.9526,-8.33759 L 16.1524,-7.94357 L 16.3425,-7.54478
 L 16.5227,-7.14145 L 16.693,-6.73381 L 16.8532,-6.32211 L 17.0033,-5.90662 L 17.1431,-5.48755 L 17.2726,-5.06519
 L 17.3917,-4.63977 L 17.5004,-4.21155 L 17.5984,-3.78081 L 17.6859,-3.34778 L 17.7628,-2.91273 L 17.8289,-2.47594
 L 17.8843,-2.03764 L 17.9289,-1.59813 L 17.9627,-1.15765 L 17.9857,-0.716476 L 17.9979,-0.274872 L 17.9992,0.166885
 L 17.9897,0.608566 L 17.9693,1.04987 L 17.9382,1.49054 L 17.8962,1.93031 L 17.8434,2.36893 L 17.7799,2.80612
 L 17.7057,3.24161 L 17.6208,3.67516 L 17.5253,4.10649 L 17.4193,4.53534 L 17.3027,4.96147 L 17.1757,5.3846
 L 17.0384,5.80449 L 16.8908,6.22089 L 16.7331,6.63353 L 16.5652,7.04219 L 16.3874,7.44659 L 16.1997,7.84653
 L 16.0023,8.24173 L 15.7952,8.63196 L 15.5786,9.017 L 15.3526,9.39659 L 15.1174,9.77054 L 14.8731,10.1386
 L 14.6198,10.5005 L 14.3577,10.8562 L 14.0869,11.2053 L 13.8077,11.5476 L 13.5202,11.883 L 13.2245,12.2112
 L 12.9208,12.5321 L 12.6094,12.8454 L 12.2903,13.151 L 11.9639,13.4486 L 11.6302,13.7382 L 11.2896,14.0195
 L 10.9421,14.2923 L 10.5881,14.5565 L 10.2276,14.812 L 9.86105,15.0585 L 9.48854,15.296 L 9.11029,15.5242
 L 8.72656,15.7431 L 8.33759,15.9526 L 7.94357,16.1524 L 7.54478,16.3425 L 7.14145,16.5227 L 6.73381,16.693
 L 6.32211,16.8532 L 5.90662,17.0033 L 5.48755,17.1431 L 5.06519,17.2726 L 4.63977,17.3917 L 4.21155,17.5004
 L 3.78081,17.5984 L 3.34778,17.6859 L 2.91273,17.7628 L 2.47594,17.8289 L 2.03764,17.8843 L 1.59813,17.9289
 L 1.15765,17.9627 L 0.716476,17.9857 L 0.274872,17.9979 L -0.166885,17.9992 z
M 15.0366,-13.5103 L 14.9269,-13.5117 L 14.8176,-13.5211 L 14.7093,-13.5385 L 14.6026,-13.5639 L 14.498,-13.597
 L 14.3961,-13.6377 L 14.2976,-13.6858 L 14.2028,-13.7411 L 14.1123,-13.8031 L 14.0267,-13.8717 L 13.9463,-13.9463
 L 13.8717,-14.0267 L 13.8031,-14.1123 L 13.7411,-14.2028 L 13.6858,-14.2976 L 13.6377,-14.3961 L 13.597,-14.498
 L 13.5639,-14.6026 L 13.5385,-14.7093 L 13.5211,-14.8176 L 13.5117,-14.9269 L 13.5103,-15.0366 L 13.5171,-15.146
 L 13.5318,-15.2547 L 13.5546,-15.3621 L 13.5851,-15.4674 L 13.6233,-15.5702 L 13.669,-15.67 L 13.7219,-15.7661
 L 13.7817,-15.858 L 13.8481,-15.9453 L 13.9208,-16.0275 L 13.9993,-16.1041 L 14.0832,-16.1747 L 14.1721,-16.239
 L 14.2655,-16.2965 L 14.3629,-16.347 L 14.4637,-16.3902 L 14.5674,-16.4259 L 14.6735,-16.4539 L 14.7814,-16.474
 L 14.8904,-16.4861 L 15,-16.4901 L 15.1096,-16.4861 L 15.2186,-16.474 L 15.3265,-16.4539 L 15.4325,-16.4259
 L 15.5363,-16.3902 L 15.6371,-16.347 L 15.7345,-16.2965 L 15.8279,-16.239 L 15.9167,-16.1747 L 16.0007,-16.1041
 L 16.0792,-16.0275 L 16.1519,-15.9453 L 16.2183,-15.858 L 16.2781,-15.7661 L 16.331,-15.67 L 16.3767,-15.5702
 L 16.4149,-15.4674 L 16.4454,-15.3621 L 16.4682,-15.2547 L 16.4829,-15.146 L 16.4896,-15.0366 L 16.4883,-14.9269
 L 16.4789,-14.8176 L 16.4615,-14.7093 L 16.4361,-14.6026 L 16.403,-14.498 L 16.3623,-14.3961 L 16.3141,-14.2976
 L 16.2589,-14.2028 L 16.1969,-14.1123 L 16.1283,-14.0267 L 16.0536,-13.9463 L 15.9733,-13.8717 L 15.8876,-13.8031
 L 15.7972,-13.7411 L 15.7024,-13.6858 L 15.6038,-13.6377 L 15.502,-13.597 L 15.3974,-13.5639 L 15.2907,-13.5385
 L 15.1824,-13.5211 L 15.0731,-13.5117 z
M -14.9634,-13.5103 L -15.0731,-13.5117 L -15.1824,-13.5211 L -15.2907,-13.5385 L -15.3974,-13.5639 L -15.502,-13.597
 L -15.6038,-13.6377 L -15.7024,-13.6858 L -15.7972,-13.7411 L -15.8876,-13.8031 L -15.9733,-13.8717 L -16.0536,-13.9463
 L -16.1283,-14.0267 L -16.1969,-14.1123 L -16.2589,-14.2028 L -16.3141,-14.2976 L -16.3623,-14.3961 L -16.403,-14.498
 L -16.4361,-14.6026 L -16.4615,-14.7093 L -16.4789,-14.8176 L -16.4883,-14.9269 L -16.4896,-15.0366 L -16.4829,-15.146
 L -16.4682,-15.2547 L -16.4454,-15.3621 L -16.4149,-15.4674 L -16.3767,-15.5702 L -16.331,-15.67 L -16.2781,-15.7661
 L -16.2183,-15.858 L -16.1519,-15.9453 L -16.0792,-16.0275 L -16.0007,-16.1041 L -15.9167,-16.1747 L -15.8279,-16.239
 L -15.7345,-16.2965 L -15.6371,-16.347 L -15.5363,-16.3902 L -15.4325,-16.4259 L -15.3265,-16.4539 L -15.2186,-16.474
 L -15.1096,-16.4861 L -15,-16.4901 L -14.8904,-16.4861 L -14.7814,-16.474 L -14.6735,-16.4539 L -14.5674,-16.4259
 L -14.4637,-16.3902 L -14.3629,-16.347 L -14.2655,-16.2965 L -14.1721,-16.239 L -14.0832,-16.1747 L -13.9993,-16.1041
 L -13.9208,-16.0275 L -13.8481,-15.9453 L -13.7817,-15.858 L -13.7219,-15.7661 L -13.669,-15.67 L -13.6233,-15.5702
 L -13.5851,-15.4674 L -13.5546,-15.3621 L -13.5318,-15.2547 L -13.5171,-15.146 L -13.5103,-15.0366 L -13.5117,-14.9269
 L -13.5211,-14.8176 L -13.5385,-14.7093 L -13.5639,-14.6026 L -13.597,-14.498 L -13.6377,-14.3961 L -13.6858,-14.2976
 L -13.7411,-14.2028 L -13.8031,-14.1123 L -13.8717,-14.0267 L -13.9463,-13.9463 L -14.0267,-13.8717 L -14.1123,-13.8031
 L -14.2028,-13.7411 L -14.2976,-13.6858 L -14.3961,-13.6377 L -14.498,-13.597 L -14.6026,-13.5639 L -14.7093,-13.5385
 L -14.8176,-13.5211 L -14.9269,-13.5117 z
M 21.6506,-12.5 L 26.2459,-14.5942 L 28.3401,-9.99889 L 23.7448,-7.90469 z
M -28.4076,-9.73911 L -26.3939,-14.3703 L -21.7627,-12.3566 L -23.7764,-7.72542 z
M 23.7764,-7.72542 L 28.7067,-8.81844 L 29.7997,-3.88814 L 24.8694,-2.79512 z
M -29.8117,-3.62001 L -28.8049,-8.56863 L -23.8562,-7.56183 L -24.863,-2.6132 z
M 24.863,-2.6132 L 29.9128,-2.65727 L 29.9569,2.39252 L 24.9071,2.43658 z
M -29.9569,-2.39252 L -24.9071,-2.43658 L -24.863,2.6132 L -29.9128,2.65727 z
M 23.8562,7.56183 L 24.863,2.6132 L 29.8117,3.62001 L 28.8049,8.56863 z
M -29.7997,3.88814 L -24.8694,2.79512 L -23.7764,7.72542 L -28.7067,8.81844 z
M 21.7627,12.3566 L 23.7764,7.72542 L 28.4076,9.73911 L 26.3939,14.3703 z
M -28.3401,9.99889 L -23.7448,7.90469 L -21.6506,12.5 L -26.2459,14.5942 z
M 18.7181,16.6113 L 21.6506,12.5 L 25.7619,15.4325 L 22.8294,19.5438 z
M -25.642,15.6726 L -21.5825,12.6688 L -18.5786,16.7283 L -22.6381,19.7321 z
M -14.9634,16.4896 L -15.0731,16.4883 L -15.1824,16.4789 L -15.2907,16.4615 L -15.3974,16.4361 L -15.502,16.403
 L -15.6038,16.3623 L -15.7024,16.3141 L -15.7972,16.2589 L -15.8876,16.1969 L -15.9733,16.1283 L -16.0536,16.0536
 L -16.1283,15.9733 L -16.1969,15.8876 L -16.2589,15.7972 L -16.3141,15.7024 L -16.3623,15.6038 L -16.403,15.502
 L -16.4361,15.3974 L -16.4615,15.2907 L -16.4789,15.1824 L -16.4883,15.0731 L -16.4896,14.9634 L -16.4829,14.8539
 L -16.4682,14.7452 L -16.4454,14.6379 L -16.4149,14.5326 L -16.3767,14.4298 L -16.331,14.33 L -16.2781,14.2339
 L -16.2183,14.142 L -16.1519,14.0547 L -16.0792,13.9725 L -16.0007,13.8959 L -15.9167,13.8253 L -15.8279,13.761
 L -15.7345,13.7035 L -15.6371,13.653 L -15.5363,13.6097 L -15.4325,13.5741 L -15.3265,13.5461 L -15.2186,13.526
 L -15.1096,13.5139 L -15,13.5099 L -14.8904,13.5139 L -14.7814,13.526 L -14.6735,13.5461 L -14.5674,13.5741
 L -14.4637,13.6097 L -14.3629,13.653 L -14.2655,13.7035 L -14.1721,13.761 L -14.0832,13.8253 L -13.9993,13.8959
 L -13.9208,13.9725 L -13.8481,14.0547 L -13.7817,14.142 L -13.7219,14.2339 L -13.669,14.33 L -13.6233,14.4298
 L -13.5851,14.5326 L -13.5546,14.6379 L -13.5318,14.7452 L -13.5171,14.8539 L -13.5103,14.9634 L -13.5117,15.0731
 L -13.5211,15.1824 L -13.5385,15.2907 L -13.5639,15.3974 L -13.597,15.502 L -13.6377,15.6038 L -13.6858,15.7024
 L -13.7411,15.7972 L -13.8031,15.8876 L -13.8717,15.9733 L -13.9463,16.0536 L -14.0267,16.1283 L -14.1123,16.1969
 L -14.2028,16.2589 L -14.2976,16.3141 L -14.3961,16.3623 L -14.498,16.403 L -14.6026,16.4361 L -14.7093,16.4615
 L -14.8176,16.4789 L -14.9269,16.4883 z
M 15.0366,16.4896 L 14.9269,16.4883 L 14.8176,16.4789 L 14.7093,16.4615 L 14.6026,16.4361 L 14.498,16.403
 L 14.3961,16.3623 L 14.2976,16.3141 L 14.2028,16.2589 L 14.1123,16.1969 L 14.0267,16.1283 L 13.9463,16.0536
 L 13.8717,15.9733 L 13.8031,15.8876 L 13.7411,15.7972 L 13.6858,15.7024 L 13.6377,15.6038 L 13.597,15.502
 L 13.5639,15.3974 L 13.5385,15.2907 L 13.5211,15.1824 L 13.5117,15.0731 L 13.5103,14.9634 L 13.5171,14.8539
 L 13.5318,14.7452 L 13.5546,14.6379 L 13.5851,14.5326 L 13.6233,14.4298 L 13.669,14.33 L 13.7219,14.2339
 L 13.7817,14.142 L 13.8481,14.0547 L 13.9208,13.9725 L 13.9993,13.8959 L 14.0832,13.8253 L 14.1721,13.761
 L 14.2655,13.7035 L 14.3629,13.653 L 14.4637,13.6097 L 14.5674,13.5741 L 14.6735,13.5461 L 14.7814,13.526
 L 14.8904,13.5139 L 15,13.5099 L 15.1096,13.5139 L 15.2186,13.526 L 15.3265,13.5461 L 15.4325,13.5741
 L 15.5363,13.6097 L 15.6371,13.653 L 15.7345,13.7035 L 15.8279,13.761 L 15.9167,13.8253 L 16.0007,13.8959
 L 16.0792,13.9725 L 16.1519,14.0547 L 16.2183,14.142 L 16.2781,14.2339 L 16.331,14.33 L 16.3767,14.4298
 L 16.4149,14.5326 L 16.4454,14.6379 L 16.4682,14.7452 L 16.4829,14.8539 L 16.4896,14.9634 L 16.4883,15.0731
 L 16.4789,15.1824 L 16.4615,15.2907 L 16.4361,15.3974 L 16.403,15.502 L 16.3623,15.6038 L 16.3141,15.7024
 L 16.2589,15.7972 L 16.1969,15.8876 L 16.1283,15.9733 L 16.0536,16.0536 L 15.9733,16.1283 L 15.8876,16.1969
 L 15.7972,16.2589 L 15.7024,16.3141 L 15.6038,16.3623 L 15.502,16.403 L 15.3974,16.4361 L 15.2907,16.4615
 L 15.1824,16.4789 L 15.0731,16.4883 z
M 14.8554,20.14 L 18.5786,16.7283 L 21.9903,20.4515 L 18.2671,23.8632 z
M -21.8231,20.6614 L -18.4769,16.8792 L -14.6946,20.2254 L -18.0409,24.0076 z
M 10.3434,22.7885 L 14.6946,20.2254 L 17.2577,24.5766 L 12.9065,27.1397 z
M -17.0504,24.7472 L -14.5637,20.3519 L -10.1684,22.8386 L -12.6552,27.2339 z
M 5.37938,24.441 L 10.1684,22.8386 L 11.7708,27.6277 L 6.98177,29.2301 z
M -11.5326,27.7514 L -10.0141,22.9351 L -5.19778,24.4537 L -6.71635,29.27 z
M 0.180252,25.0254 L 5.19778,24.4537 L 5.76945,29.4712 L 0.751923,30.0429 z
M -5.51076,29.5427 L -5.02675,24.516 L 0,25 L -0.484009,30.0267 z
" stroke="black" fill="lightgray" stroke-width="0.5"/></svg>
