  0
SECTION
  2
BLOCKS
  0
ENDSEC
  0
SECTION
  2
ENTITIES
  0
LINE
  8
0
 10
0.473389
 20
-30.9964
 11
1.23395
 21
-30.9754
  0
LINE
  8
0
 10
1.23395
 20
-30.9754
 11
1.99374
 21
-30.9358
  0
LINE
  8
0
 10
1.99374
 20
-30.9358
 11
2.75235
 21
-30.8776
  0
LINE
  8
0
 10
2.75235
 20
-30.8776
 11
3.50929
 21
-30.8007
  0
LINE
  8
0
 10
3.50929
 20
-30.8007
 11
4.26413
 21
-30.7053
  0
LINE
  8
0
 10
4.26413
 20
-30.7053
 11
5.01639
 21
-30.5914
  0
LINE
  8
0
 10
5.01639
 20
-30.5914
 11
5.76562
 21
-30.4591
  0
LINE
  8
0
 10
5.76562
 20
-30.4591
 11
6.5114
 21
-30.3084
  0
LINE
  8
0
 10
6.5114
 20
-30.3084
 11
7.25323
 21
-30.1395
  0
LINE
  8
0
 10
7.25323
 20
-30.1395
 11
7.99071
 21
-29.9524
  0
LINE
  8
0
 10
7.99071
 20
-29.9524
 11
8.72337
 21
-29.7473
  0
LINE
  8
0
 10
8.72337
 20
-29.7473
 11
9.45079
 21
-29.5243
  0
LINE
  8
0
 10
9.45079
 20
-29.5243
 11
10.1725
 21
-29.2834
  0
LINE
  8
0
 10
10.1725
 20
-29.2834
 11
10.8881
 21
-29.025
  0
LINE
  8
0
 10
10.8881
 20
-29.025
 11
11.5971
 21
-28.749
  0
LINE
  8
0
 10
11.5971
 20
-28.749
 11
12.2992
 21
-28.4557
  0
LINE
  8
0
 10
12.2992
 20
-28.4557
 11
12.9938
 21
-28.1454
  0
LINE
  8
0
 10
12.9938
 20
-28.1454
 11
13.6806
 21
-27.818
  0
LINE
  8
0
 10
13.6806
 20
-27.818
 11
14.3592
 21
-27.4739
  0
LINE
  8
0
 10
14.3592
 20
-27.4739
 11
15.0291
 21
-27.1132
  0
LINE
  8
0
 10
15.0291
 20
-27.1132
 11
15.69
 21
-26.7362
  0
LINE
  8
0
 10
15.69
 20
-26.7362
 11
16.3414
 21
-26.3431
  0
LINE
  8
0
 10
16.3414
 20
-26.3431
 11
16.9829
 21
-25.9341
  0
LINE
  8
0
 10
16.9829
 20
-25.9341
 11
17.6143
 21
-25.5095
  0
LINE
  8
0
 10
17.6143
 20
-25.5095
 11
18.235
 21
-25.0696
  0
LINE
  8
0
 10
18.235
 20
-25.0696
 11
18.8448
 21
-24.6145
  0
LINE
  8
0
 10
18.8448
 20
-24.6145
 11
19.4432
 21
-24.1446
  0
LINE
  8
0
 10
19.4432
 20
-24.1446
 11
20.0298
 21
-23.6602
  0
LINE
  8
0
 10
20.0298
 20
-23.6602
 11
20.6045
 21
-23.1615
  0
LINE
  8
0
 10
20.6045
 20
-23.1615
 11
21.1667
 21
-22.6489
  0
LINE
  8
0
 10
21.1667
 20
-22.6489
 11
21.7161
 21
-22.1226
  0
LINE
  8
0
 10
21.7161
 20
-22.1226
 11
22.2525
 21
-21.583
  0
LINE
  8
0
 10
22.2525
 20
-21.583
 11
22.7755
 21
-21.0304
  0
LINE
  8
0
 10
22.7755
 20
-21.0304
 11
23.2847
 21
-20.4651
  0
LINE
  8
0
 10
23.2847
 20
-20.4651
 11
23.7799
 21
-19.8875
  0
LINE
  8
0
 10
23.7799
 20
-19.8875
 11
24.2608
 21
-19.2979
  0
LINE
  8
0
 10
24.2608
 20
-19.2979
 11
24.7271
 21
-18.6967
  0
LINE
  8
0
 10
24.7271
 20
-18.6967
 11
25.1785
 21
-18.0843
  0
LINE
  8
0
 10
25.1785
 20
-18.0843
 11
25.6148
 21
-17.4609
  0
LINE
  8
0
 10
25.6148
 20
-17.4609
 11
26.0356
 21
-16.827
  0
LINE
  8
0
 10
26.0356
 20
-16.827
 11
26.4407
 21
-16.183
  0
LINE
  8
0
 10
26.4407
 20
-16.183
 11
26.8299
 21
-15.5293
  0
LINE
  8
0
 10
26.8299
 20
-15.5293
 11
27.2029
 21
-14.8661
  0
LINE
  8
0
 10
27.2029
 20
-14.8661
 11
27.5595
 21
-14.1941
  0
LINE
  8
0
 10
27.5595
 20
-14.1941
 11
27.8996
 21
-13.5135
  0
LINE
  8
0
 10
27.8996
 20
-13.5135
 11
28.2228
 21
-12.8247
  0
LINE
  8
0
 10
28.2228
 20
-12.8247
 11
28.529
 21
-12.1282
  0
LINE
  8
0
 10
28.529
 20
-12.1282
 11
28.8181
 21
-11.4244
  0
LINE
  8
0
 10
28.8181
 20
-11.4244
 11
29.0898
 21
-10.7138
  0
LINE
  8
0
 10
29.0898
 20
-10.7138
 11
29.3439
 21
-9.99663
  0
LINE
  8
0
 10
29.3439
 20
-9.99663
 11
29.5804
 21
-9.27348
  0
LINE
  8
0
 10
29.5804
 20
-9.27348
 11
29.7991
 21
-8.54475
  0
LINE
  8
0
 10
29.7991
 20
-8.54475
 11
29.9998
 21
-7.81087
  0
LINE
  8
0
 10
29.9998
 20
-7.81087
 11
30.1825
 21
-7.07228
  0
LINE
  8
0
 10
30.1825
 20
-7.07228
 11
30.347
 21
-6.32944
  0
LINE
  8
0
 10
30.347
 20
-6.32944
 11
30.4931
 21
-5.58278
  0
LINE
  8
0
 10
30.4931
 20
-5.58278
 11
30.621
 21
-4.83276
  0
LINE
  8
0
 10
30.621
 20
-4.83276
 11
30.7303
 21
-4.07983
  0
LINE
  8
0
 10
30.7303
 20
-4.07983
 11
30.8212
 21
-3.32443
  0
LINE
  8
0
 10
30.8212
 20
-3.32443
 11
30.8935
 21
-2.56705
  0
LINE
  8
0
 10
30.8935
 20
-2.56705
 11
30.9472
 21
-1.80811
  0
LINE
  8
0
 10
30.9472
 20
-1.80811
 11
30.9823
 21
-1.04808
  0
LINE
  8
0
 10
30.9823
 20
-1.04808
 11
30.9987
 21
-0.287415
  0
LINE
  8
0
 10
30.9987
 20
-0.287415
 11
30.9964
 21
0.473389
  0
LINE
  8
0
 10
30.9964
 20
0.473389
 11
30.9754
 21
1.23395
  0
LINE
  8
0
 10
30.9754
 20
1.23395
 11
30.9358
 21
1.99374
  0
LINE
  8
0
 10
30.9358
 20
1.99374
 11
30.8776
 21
2.75235
  0
LINE
  8
0
 10
30.8776
 20
2.75235
 11
30.8007
 21
3.50929
  0
LINE
  8
0
 10
30.8007
 20
3.50929
 11
30.7053
 21
4.26413
  0
LINE
  8
0
 10
30.7053
 20
4.26413
 11
30.5914
 21
5.01639
  0
LINE
  8
0
 10
30.5914
 20
5.01639
 11
30.4591
 21
5.76562
  0
LINE
  8
0
 10
30.4591
 20
5.76562
 11
30.3084
 21
6.5114
  0
LINE
  8
0
 10
30.3084
 20
6.5114
 11
30.1395
 21
7.25323
  0
LINE
  8
0
 10
30.1395
 20
7.25323
 11
29.9524
 21
7.99071
  0
LINE
  8
0
 10
29.9524
 20
7.99071
 11
29.7473
 21
8.72337
  0
LINE
  8
0
 10
29.7473
 20
8.72337
 11
29.5243
 21
9.45079
  0
LINE
  8
0
 10
29.5243
 20
9.45079
 11
29.2834
 21
10.1725
  0
LINE
  8
0
 10
29.2834
 20
10.1725
 11
29.025
 21
10.8881
  0
LINE
  8
0
 10
29.025
 20
10.8881
 11
28.749
 21
11.5971
  0
LINE
  8
0
 10
28.749
 20
11.5971
 11
28.4557
 21
12.2992
  0
LINE
  8
0
 10
28.4557
 20
12.2992
 11
28.1454
 21
12.9938
  0
LINE
  8
0
 10
28.1454
 20
12.9938
 11
27.818
 21
13.6806
  0
LINE
  8
0
 10
27.818
 20
13.6806
 11
27.4739
 21
14.3592
  0
LINE
  8
0
 10
27.4739
 20
14.3592
 11
27.1132
 21
15.0291
  0
LINE
  8
0
 10
27.1132
 20
15.0291
 11
26.7362
 21
15.69
  0
LINE
  8
0
 10
26.7362
 20
15.69
 11
26.3431
 21
16.3414
  0
LINE
  8
0
 10
26.3431
 20
16.3414
 11
25.9341
 21
16.9829
  0
LINE
  8
0
 10
25.9341
 20
16.9829
 11
25.5095
 21
17.6143
  0
LINE
  8
0
 10
25.5095
 20
17.6143
 11
25.0696
 21
18.235
  0
LINE
  8
0
 10
25.0696
 20
18.235
 11
24.6145
 21
18.8448
  0
LINE
  8
0
 10
24.6145
 20
18.8448
 11
24.1446
 21
19.4432
  0
LINE
  8
0
 10
24.1446
 20
19.4432
 11
23.6602
 21
20.0298
  0
LINE
  8
0
 10
23.6602
 20
20.0298
 11
23.1615
 21
20.6045
  0
LINE
  8
0
 10
23.1615
 20
20.6045
 11
22.6489
 21
21.1667
  0
LINE
  8
0
 10
22.6489
 20
21.1667
 11
22.1226
 21
21.7161
  0
LINE
  8
0
 10
22.1226
 20
21.7161
 11
21.583
 21
22.2525
  0
LINE
  8
0
 10
21.583
 20
22.2525
 11
21.0304
 21
22.7755
  0
LINE
  8
0
 10
21.0304
 20
22.7755
 11
20.4651
 21
23.2847
  0
LINE
  8
0
 10
20.4651
 20
23.2847
 11
19.8875
 21
23.7799
  0
LINE
  8
0
 10
19.8875
 20
23.7799
 11
19.2979
 21
24.2608
  0
LINE
  8
0
 10
19.2979
 20
24.2608
 11
18.6967
 21
24.7271
  0
LINE
  8
0
 10
18.6967
 20
24.7271
 11
18.0843
 21
25.1785
  0
LINE
  8
0
 10
18.0843
 20
25.1785
 11
17.4609
 21
25.6148
  0
LINE
  8
0
 10
17.4609
 20
25.6148
 11
16.827
 21
26.0356
  0
LINE
  8
0
 10
16.827
 20
26.0356
 11
16.183
 21
26.4407
  0
LINE
  8
0
 10
16.183
 20
26.4407
 11
15.5293
 21
26.8299
  0
LINE
  8
0
 10
15.5293
 20
26.8299
 11
14.8661
 21
27.2029
  0
LINE
  8
0
 10
14.8661
 20
27.2029
 11
14.1941
 21
27.5595
  0
LINE
  8
0
 10
14.1941
 20
27.5595
 11
13.5135
 21
27.8996
  0
LINE
  8
0
 10
13.5135
 20
27.8996
 11
12.8247
 21
28.2228
  0
LINE
  8
0
 10
12.8247
 20
28.2228
 11
12.1282
 21
28.529
  0
LINE
  8
0
 10
12.1282
 20
28.529
 11
11.4244
 21
28.8181
  0
LINE
  8
0
 10
11.4244
 20
28.8181
 11
10.7138
 21
29.0898
  0
LINE
  8
0
 10
10.7138
 20
29.0898
 11
9.99663
 21
29.3439
  0
LINE
  8
0
 10
9.99663
 20
29.3439
 11
9.27348
 21
29.5804
  0
LINE
  8
0
 10
9.27348
 20
29.5804
 11
8.54475
 21
29.7991
  0
LINE
  8
0
 10
8.54475
 20
29.7991
 11
7.81087
 21
29.9998
  0
LINE
  8
0
 10
7.81087
 20
29.9998
 11
7.07228
 21
30.1825
  0
LINE
  8
0
 10
7.07228
 20
30.1825
 11
6.32944
 21
30.347
  0
LINE
  8
0
 10
6.32944
 20
30.347
 11
5.58278
 21
30.4931
  0
LINE
  8
0
 10
5.58278
 20
30.4931
 11
4.83276
 21
30.621
  0
LINE
  8
0
 10
4.83276
 20
30.621
 11
4.07983
 21
30.7303
  0
LINE
  8
0
 10
4.07983
 20
30.7303
 11
3.32443
 21
30.8212
  0
LINE
  8
0
 10
3.32443
 20
30.8212
 11
2.56705
 21
30.8935
  0
LINE
  8
0
 10
2.56705
 20
30.8935
 11
1.80811
 21
30.9472
  0
LINE
  8
0
 10
1.80811
 20
30.9472
 11
1.04808
 21
30.9823
  0
LINE
  8
0
 10
1.04808
 20
30.9823
 11
0.287415
 21
30.9987
  0
LINE
  8
0
 10
0.287415
 20
30.9987
 11
-0.473389
 21
30.9964
  0
LINE
  8
0
 10
-0.473389
 20
30.9964
 11
-1.23395
 21
30.9754
  0
LINE
  8
0
 10
-1.23395
 20
30.9754
 11
-1.99374
 21
30.9358
  0
LINE
  8
0
 10
-1.99374
 20
30.9358
 11
-2.75235
 21
30.8776
  0
LINE
  8
0
 10
-2.75235
 20
30.8776
 11
-3.50929
 21
30.8007
  0
LINE
  8
0
 10
-3.50929
 20
30.8007
 11
-4.26413
 21
30.7053
  0
LINE
  8
0
 10
-4.26413
 20
30.7053
 11
-5.01639
 21
30.5914
  0
LINE
  8
0
 10
-5.01639
 20
30.5914
 11
-5.76562
 21
30.4591
  0
LINE
  8
0
 10
-5.76562
 20
30.4591
 11
-6.5114
 21
30.3084
  0
LINE
  8
0
 10
-6.5114
 20
30.3084
 11
-7.25323
 21
30.1395
  0
LINE
  8
0
 10
-7.25323
 20
30.1395
 11
-7.99071
 21
29.9524
  0
LINE
  8
0
 10
-7.99071
 20
29.9524
 11
-8.72337
 21
29.7473
  0
LINE
  8
0
 10
-8.72337
 20
29.7473
 11
-9.45079
 21
29.5243
  0
LINE
  8
0
 10
-9.45079
 20
29.5243
 11
-10.1725
 21
29.2834
  0
LINE
  8
0
 10
-10.1725
 20
29.2834
 11
-10.8881
 21
29.025
  0
LINE
  8
0
 10
-10.8881
 20
29.025
 11
-11.5971
 21
28.749
  0
LINE
  8
0
 10
-11.5971
 20
28.749
 11
-12.2992
 21
28.4557
  0
LINE
  8
0
 10
-12.2992
 20
28.4557
 11
-12.9938
 21
28.1454
  0
LINE
  8
0
 10
-12.9938
 20
28.1454
 11
-13.6806
 21
27.818
  0
LINE
  8
0
 10
-13.6806
 20
27.818
 11
-14.3592
 21
27.4739
  0
LINE
  8
0
 10
-14.3592
 20
27.4739
 11
-15.0291
 21
27.1132
  0
LINE
  8
0
 10
-15.0291
 20
27.1132
 11
-15.69
 21
26.7362
  0
LINE
  8
0
 10
-15.69
 20
26.7362
 11
-16.3414
 21
26.3431
  0
LINE
  8
0
 10
-16.3414
 20
26.3431
 11
-16.9829
 21
25.9341
  0
LINE
  8
0
 10
-16.9829
 20
25.9341
 11
-17.6143
 21
25.5095
  0
LINE
  8
0
 10
-17.6143
 20
25.5095
 11
-18.235
 21
25.0696
  0
LINE
  8
0
 10
-18.235
 20
25.0696
 11
-18.8448
 21
24.6145
  0
LINE
  8
0
 10
-18.8448
 20
24.6145
 11
-19.4432
 21
24.1446
  0
LINE
  8
0
 10
-19.4432
 20
24.1446
 11
-20.0298
 21
23.6602
  0
LINE
  8
0
 10
-20.0298
 20
23.6602
 11
-20.6045
 21
23.1615
  0
LINE
  8
0
 10
-20.6045
 20
23.1615
 11
-21.1667
 21
22.6489
  0
LINE
  8
0
 10
-21.1667
 20
22.6489
 11
-21.7161
 21
22.1226
  0
LINE
  8
0
 10
-21.7161
 20
22.1226
 11
-22.2525
 21
21.583
  0
LINE
  8
0
 10
-22.2525
 20
21.583
 11
-22.7755
 21
21.0304
  0
LINE
  8
0
 10
-22.7755
 20
21.0304
 11
-23.2847
 21
20.4651
  0
LINE
  8
0
 10
-23.2847
 20
20.4651
 11
-23.7799
 21
19.8875
  0
LINE
  8
0
 10
-23.7799
 20
19.8875
 11
-24.2608
 21
19.2979
  0
LINE
  8
0
 10
-24.2608
 20
19.2979
 11
-24.7271
 21
18.6967
  0
LINE
  8
0
 10
-24.7271
 20
18.6967
 11
-25.1785
 21
18.0843
  0
LINE
  8
0
 10
-25.1785
 20
18.0843
 11
-25.6148
 21
17.4609
  0
LINE
  8
0
 10
-25.6148
 20
17.4609
 11
-26.0356
 21
16.827
  0
LINE
  8
0
 10
-26.0356
 20
16.827
 11
-26.4407
 21
16.183
  0
LINE
  8
0
 10
-26.4407
 20
16.183
 11
-26.8299
 21
15.5293
  0
LINE
  8
0
 10
-26.8299
 20
15.5293
 11
-27.2029
 21
14.8661
  0
LINE
  8
0
 10
-27.2029
 20
14.8661
 11
-27.5595
 21
14.1941
  0
LINE
  8
0
 10
-27.5595
 20
14.1941
 11
-27.8996
 21
13.5135
  0
LINE
  8
0
 10
-27.8996
 20
13.5135
 11
-28.2228
 21
12.8247
  0
LINE
  8
0
 10
-28.2228
 20
12.8247
 11
-28.529
 21
12.1282
  0
LINE
  8
0
 10
-28.529
 20
12.1282
 11
-28.8181
 21
11.4244
  0
LINE
  8
0
 10
-28.8181
 20
11.4244
 11
-29.0898
 21
10.7138
  0
LINE
  8
0
 10
-29.0898
 20
10.7138
 11
-29.3439
 21
9.99663
  0
LINE
  8
0
 10
-29.3439
 20
9.99663
 11
-29.5804
 21
9.27348
  0
LINE
  8
0
 10
-29.5804
 20
9.27348
 11
-29.7991
 21
8.54475
  0
LINE
  8
0
 10
-29.7991
 20
8.54475
 11
-29.9998
 21
7.81087
  0
LINE
  8
0
 10
-29.9998
 20
7.81087
 11
-30.1825
 21
7.07228
  0
LINE
  8
0
 10
-30.1825
 20
7.07228
 11
-30.347
 21
6.32944
  0
LINE
  8
0
 10
-30.347
 20
6.32944
 11
-30.4931
 21
5.58278
  0
LINE
  8
0
 10
-30.4931
 20
5.58278
 11
-30.621
 21
4.83276
  0
LINE
  8
0
 10
-30.621
 20
4.83276
 11
-30.7303
 21
4.07983
  0
LINE
  8
0
 10
-30.7303
 20
4.07983
 11
-30.8212
 21
3.32443
  0
LINE
  8
0
 10
-30.8212
 20
3.32443
 11
-30.8935
 21
2.56705
  0
LINE
  8
0
 10
-30.8935
 20
2.56705
 11
-30.9472
 21
1.80811
  0
LINE
  8
0
 10
-30.9472
 20
1.80811
 11
-30.9823
 21
1.04808
  0
LINE
  8
0
 10
-30.9823
 20
1.04808
 11
-30.9987
 21
0.287415
  0
LINE
  8
0
 10
-30.9987
 20
0.287415
 11
-30.9964
 21
-0.473389
  0
LINE
  8
0
 10
-30.9964
 20
-0.473389
 11
-30.9754
 21
-1.23395
  0
LINE
  8
0
 10
-30.9754
 20
-1.23395
 11
-30.9358
 21
-1.99374
  0
LINE
  8
0
 10
-30.9358
 20
-1.99374
 11
-30.8776
 21
-2.75235
  0
LINE
  8
0
 10
-30.8776
 20
-2.75235
 11
-30.8007
 21
-3.50929
  0
LINE
  8
0
 10
-30.8007
 20
-3.50929
 11
-30.7053
 21
-4.26413
  0
LINE
  8
0
 10
-30.7053
 20
-4.26413
 11
-30.5914
 21
-5.01639
  0
LINE
  8
0
 10
-30.5914
 20
-5.01639
 11
-30.4591
 21
-5.76562
  0
LINE
  8
0
 10
-30.4591
 20
-5.76562
 11
-30.3084
 21
-6.5114
  0
LINE
  8
0
 10
-30.3084
 20
-6.5114
 11
-30.1395
 21
-7.25323
  0
LINE
  8
0
 10
-30.1395
 20
-7.25323
 11
-29.9524
 21
-7.99071
  0
LINE
  8
0
 10
-29.9524
 20
-7.99071
 11
-29.7473
 21
-8.72337
  0
LINE
  8
0
 10
-29.7473
 20
-8.72337
 11
-29.5243
 21
-9.45079
  0
LINE
  8
0
 10
-29.5243
 20
-9.45079
 11
-29.2834
 21
-10.1725
  0
LINE
  8
0
 10
-29.2834
 20
-10.1725
 11
-29.025
 21
-10.8881
  0
LINE
  8
0
 10
-29.025
 20
-10.8881
 11
-28.749
 21
-11.5971
  0
LINE
  8
0
 10
-28.749
 20
-11.5971
 11
-28.4557
 21
-12.2992
  0
LINE
  8
0
 10
-28.4557
 20
-12.2992
 11
-28.1454
 21
-12.9938
  0
LINE
  8
0
 10
-28.1454
 20
-12.9938
 11
-27.818
 21
-13.6806
  0
LINE
  8
0
 10
-27.818
 20
-13.6806
 11
-27.4739
 21
-14.3592
  0
LINE
  8
0
 10
-27.4739
 20
-14.3592
 11
-27.1132
 21
-15.0291
  0
LINE
  8
0
 10
-27.1132
 20
-15.0291
 11
-26.7362
 21
-15.69
  0
LINE
  8
0
 10
-26.7362
 20
-15.69
 11
-26.3431
 21
-16.3414
  0
LINE
  8
0
 10
-26.3431
 20
-16.3414
 11
-25.9341
 21
-16.9829
  0
LINE
  8
0
 10
-25.9341
 20
-16.9829
 11
-25.5095
 21
-17.6143
  0
LINE
  8
0
 10
-25.5095
 20
-17.6143
 11
-25.0696
 21
-18.235
  0
LINE
  8
0
 10
-25.0696
 20
-18.235
 11
-24.6145
 21
-18.8448
  0
LINE
  8
0
 10
-24.6145
 20
-18.8448
 11
-24.1446
 21
-19.4432
  0
LINE
  8
0
 10
-24.1446
 20
-19.4432
 11
-23.6602
 21
-20.0298
  0
LINE
  8
0
 10
-23.6602
 20
-20.0298
 11
-23.1615
 21
-20.6045
  0
LINE
  8
0
 10
-23.1615
 20
-20.6045
 11
-22.6489
 21
-21.1667
  0
LINE
  8
0
 10
-22.6489
 20
-21.1667
 11
-22.1226
 21
-21.7161
  0
LINE
  8
0
 10
-22.1226
 20
-21.7161
 11
-21.583
 21
-22.2525
  0
LINE
  8
0
 10
-21.583
 20
-22.2525
 11
-21.0304
 21
-22.7755
  0
LINE
  8
0
 10
-21.0304
 20
-22.7755
 11
-20.4651
 21
-23.2847
  0
LINE
  8
0
 10
-20.4651
 20
-23.2847
 11
-19.8875
 21
-23.7799
  0
LINE
  8
0
 10
-19.8875
 20
-23.7799
 11
-19.2979
 21
-24.2608
  0
LINE
  8
0
 10
-19.2979
 20
-24.2608
 11
-18.6967
 21
-24.7271
  0
LINE
  8
0
 10
-18.6967
 20
-24.7271
 11
-18.0843
 21
-25.1785
  0
LINE
  8
0
 10
-18.0843
 20
-25.1785
 11
-17.4609
 21
-25.6148
  0
LINE
  8
0
 10
-17.4609
 20
-25.6148
 11
-16.827
 21
-26.0356
  0
LINE
  8
0
 10
-16.827
 20
-26.0356
 11
-16.183
 21
-26.4407
  0
LINE
  8
0
 10
-16.183
 20
-26.4407
 11
-15.5293
 21
-26.8299
  0
LINE
  8
0
 10
-15.5293
 20
-26.8299
 11
-14.8661
 21
-27.2029
  0
LINE
  8
0
 10
-14.8661
 20
-27.2029
 11
-14.1941
 21
-27.5595
  0
LINE
  8
0
 10
-14.1941
 20
-27.5595
 11
-13.5135
 21
-27.8996
  0
LINE
  8
0
 10
-13.5135
 20
-27.8996
 11
-12.8247
 21
-28.2228
  0
LINE
  8
0
 10
-12.8247
 20
-28.2228
 11
-12.1282
 21
-28.529
  0
LINE
  8
0
 10
-12.1282
 20
-28.529
 11
-11.4244
 21
-28.8181
  0
LINE
  8
0
 10
-11.4244
 20
-28.8181
 11
-10.7138
 21
-29.0898
  0
LINE
  8
0
 10
-10.7138
 20
-29.0898
 11
-9.99663
 21
-29.3439
  0
LINE
  8
0
 10
-9.99663
 20
-29.3439
 11
-9.27348
 21
-29.5804
  0
LINE
  8
0
 10
-9.27348
 20
-29.5804
 11
-8.54475
 21
-29.7991
  0
LINE
  8
0
 10
-8.54475
 20
-29.7991
 11
-7.81087
 21
-29.9998
  0
LINE
  8
0
 10
-7.81087
 20
-29.9998
 11
-7.07228
 21
-30.1825
  0
LINE
  8
0
 10
-7.07228
 20
-30.1825
 11
-6.32944
 21
-30.347
  0
LINE
  8
0
 10
-6.32944
 20
-30.347
 11
-5.58278
 21
-30.4931
  0
LINE
  8
0
 10
-5.58278
 20
-30.4931
 11
-4.83276
 21
-30.621
  0
LINE
  8
0
 10
-4.83276
 20
-30.621
 11
-4.07983
 21
-30.7303
  0
LINE
  8
0
 10
-4.07983
 20
-30.7303
 11
-3.32443
 21
-30.8212
  0
LINE
  8
0
 10
-3.32443
 20
-30.8212
 11
-2.56705
 21
-30.8935
  0
LINE
  8
0
 10
-2.56705
 20
-30.8935
 11
-1.80811
 21
-30.9472
  0
LINE
  8
0
 10
-1.80811
 20
-30.9472
 11
-1.04808
 21
-30.9823
  0
LINE
  8
0
 10
-1.04808
 20
-30.9823
 11
-0.287415
 21
-30.9987
  0
LINE
  8
0
 10
-0.287415
 20
-30.9987
 11
0.473389
 21
-30.9964
  0
LINE
  8
0
 10
-5.76945
 20
29.4712
 11
-0.751923
 21
30.0429
  0
LINE
  8
0
 10
-0.751923
 20
30.0429
 11
-0.180252
 21
25.0254
  0
LINE
  8
0
 10
-0.180252
 20
25.0254
 11
-5.19778
 21
24.4537
  0
LINE
  8
0
 10
-5.19778
 20
24.4537
 11
-5.76945
 21
29.4712
  0
LINE
  8
0
 10
0
 20
25
 11
0.484009
 21
30.0267
  0
LINE
  8
0
 10
0.484009
 20
30.0267
 11
5.51076
 21
29.5427
  0
LINE
  8
0
 10
5.51076
 20
29.5427
 11
5.02675
 21
24.516
  0
LINE
  8
0
 10
5.02675
 20
24.516
 11
0
 21
25
  0
LINE
  8
0
 10
5.19778
 20
24.4537
 11
6.71635
 21
29.27
  0
LINE
  8
0
 10
6.71635
 20
29.27
 11
11.5326
 21
27.7514
  0
LINE
  8
0
 10
11.5326
 20
27.7514
 11
10.0141
 21
22.9351
  0
LINE
  8
0
 10
10.0141
 20
22.9351
 11
5.19778
 21
24.4537
  0
LINE
  8
0
 10
-11.7708
 20
27.6277
 11
-6.98177
 21
29.2301
  0
LINE
  8
0
 10
-6.98177
 20
29.2301
 11
-5.37938
 21
24.441
  0
LINE
  8
0
 10
-5.37938
 20
24.441
 11
-10.1684
 21
22.8386
  0
LINE
  8
0
 10
-10.1684
 20
22.8386
 11
-11.7708
 21
27.6277
  0
LINE
  8
0
 10
10.1684
 20
22.8386
 11
12.6552
 21
27.2339
  0
LINE
  8
0
 10
12.6552
 20
27.2339
 11
17.0504
 21
24.7472
  0
LINE
  8
0
 10
17.0504
 20
24.7472
 11
14.5637
 21
20.3519
  0
LINE
  8
0
 10
14.5637
 20
20.3519
 11
10.1684
 21
22.8386
  0
LINE
  8
0
 10
-17.2577
 20
24.5766
 11
-12.9065
 21
27.1397
  0
LINE
  8
0
 10
-12.9065
 20
27.1397
 11
-10.3434
 21
22.7885
  0
LINE
  8
0
 10
-10.3434
 20
22.7885
 11
-14.6946
 21
20.2254
  0
LINE
  8
0
 10
-14.6946
 20
20.2254
 11
-17.2577
 21
24.5766
  0
LINE
  8
0
 10
14.6946
 20
20.2254
 11
18.0409
 21
24.0076
  0
LINE
  8
0
 10
18.0409
 20
24.0076
 11
21.8231
 21
20.6614
  0
LINE
  8
0
 10
21.8231
 20
20.6614
 11
18.4769
 21
16.8792
  0
LINE
  8
0
 10
18.4769
 20
16.8792
 11
14.6946
 21
20.2254
  0
LINE
  8
0
 10
-21.9903
 20
20.4515
 11
-18.2671
 21
23.8632
  0
LINE
  8
0
 10
-18.2671
 20
23.8632
 11
-14.8554
 21
20.14
  0
LINE
  8
0
 10
-14.8554
 20
20.14
 11
-18.5786
 21
16.7283
  0
LINE
  8
0
 10
-18.5786
 20
16.7283
 11
-21.9903
 21
20.4515
  0
LINE
  8
0
 10
18.5786
 20
16.7283
 11
22.6381
 21
19.7321
  0
LINE
  8
0
 10
22.6381
 20
19.7321
 11
25.642
 21
15.6726
  0
LINE
  8
0
 10
25.642
 20
15.6726
 11
21.5825
 21
12.6688
  0
LINE
  8
0
 10
21.5825
 20
12.6688
 11
18.5786
 21
16.7283
  0
LINE
  8
0
 10
-25.7619
 20
15.4325
 11
-22.8294
 21
19.5438
  0
LINE
  8
0
 10
-22.8294
 20
19.5438
 11
-18.7181
 21
16.6113
  0
LINE
  8
0
 10
-18.7181
 20
16.6113
 11
-21.6506
 21
12.5
  0
LINE
  8
0
 10
-21.6506
 20
12.5
 11
-25.7619
 21
15.4325
  0
LINE
  8
0
 10
-0.608566
 20
-17.9897
 11
-1.04987
 21
-17.9693
  0
LINE
  8
0
 10
-1.04987
 20
-17.9693
 11
-1.49054
 21
-17.9382
  0
LINE
  8
0
 10
-1.49054
 20
-17.9382
 11
-1.93031
 21
-17.8962
  0
LINE
  8
0
 10
-1.93031
 20
-17.8962
 11
-2.36893
 21
-17.8434
  0
LINE
  8
0
 10
-2.36893
 20
-17.8434
 11
-2.80612
 21
-17.7799
  0
LINE
  8
0
 10
-2.80612
 20
-17.7799
 11
-3.24161
 21
-17.7057
  0
LINE
  8
0
 10
-3.24161
 20
-17.7057
 11
-3.67516
 21
-17.6208
  0
LINE
  8
0
 10
-3.67516
 20
-17.6208
 11
-4.10649
 21
-17.5253
  0
LINE
  8
0
 10
-4.10649
 20
-17.5253
 11
-4.53534
 21
-17.4193
  0
LINE
  8
0
 10
-4.53534
 20
-17.4193
 11
-4.96147
 21
-17.3027
  0
LINE
  8
0
 10
-4.96147
 20
-17.3027
 11
-5.3846
 21
-17.1757
  0
LINE
  8
0
 10
-5.3846
 20
-17.1757
 11
-5.80449
 21
-17.0384
  0
LINE
  8
0
 10
-5.80449
 20
-17.0384
 11
-6.22089
 21
-16.8908
  0
LINE
  8
0
 10
-6.22089
 20
-16.8908
 11
-6.63353
 21
-16.7331
  0
LINE
  8
0
 10
-6.63353
 20
-16.7331
 11
-7.04219
 21
-16.5652
  0
LINE
  8
0
 10
-7.04219
 20
-16.5652
 11
-7.44659
 21
-16.3874
  0
LINE
  8
0
 10
-7.44659
 20
-16.3874
 11
-7.84653
 21
-16.1997
  0
LINE
  8
0
 10
-7.84653
 20
-16.1997
 11
-8.24173
 21
-16.0023
  0
LINE
  8
0
 10
-8.24173
 20
-16.0023
 11
-8.63196
 21
-15.7952
  0
LINE
  8
0
 10
-8.63196
 20
-15.7952
 11
-9.017
 21
-15.5786
  0
LINE
  8
0
 10
-9.017
 20
-15.5786
 11
-9.39659
 21
-15.3526
  0
LINE
  8
0
 10
-9.39659
 20
-15.3526
 11
-9.77054
 21
-15.1174
  0
LINE
  8
0
 10
-9.77054
 20
-15.1174
 11
-10.1386
 21
-14.8731
  0
LINE
  8
0
 10
-10.1386
 20
-14.8731
 11
-10.5005
 21
-14.6198
  0
LINE
  8
0
 10
-10.5005
 20
-14.6198
 11
-10.8562
 21
-14.3577
  0
LINE
  8
0
 10
-10.8562
 20
-14.3577
 11
-11.2053
 21
-14.0869
  0
LINE
  8
0
 10
-11.2053
 20
-14.0869
 11
-11.5476
 21
-13.8077
  0
LINE
  8
0
 10
-11.5476
 20
-13.8077
 11
-11.883
 21
-13.5202
  0
LINE
  8
0
 10
-11.883
 20
-13.5202
 11
-12.2112
 21
-13.2245
  0
LINE
  8
0
 10
-12.2112
 20
-13.2245
 11
-12.5321
 21
-12.9208
  0
LINE
  8
0
 10
-12.5321
 20
-12.9208
 11
-12.8454
 21
-12.6094
  0
LINE
  8
0
 10
-12.8454
 20
-12.6094
 11
-13.151
 21
-12.2903
  0
LINE
  8
0
 10
-13.151
 20
-12.2903
 11
-13.4486
 21
-11.9639
  0
LINE
  8
0
 10
-13.4486
 20
-11.9639
 11
-13.7382
 21
-11.6302
  0
LINE
  8
0
 10
-13.7382
 20
-11.6302
 11
-14.0195
 21
-11.2896
  0
LINE
  8
0
 10
-14.0195
 20
-11.2896
 11
-14.2923
 21
-10.9421
  0
LINE
  8
0
 10
-14.2923
 20
-10.9421
 11
-14.5565
 21
-10.5881
  0
LINE
  8
0
 10
-14.5565
 20
-10.5881
 11
-14.812
 21
-10.2276
  0
LINE
  8
0
 10
-14.812
 20
-10.2276
 11
-15.0585
 21
-9.86105
  0
LINE
  8
0
 10
-15.0585
 20
-9.86105
 11
-15.296
 21
-9.48854
  0
LINE
  8
0
 10
-15.296
 20
-9.48854
 11
-15.5242
 21
-9.11029
  0
LINE
  8
0
 10
-15.5242
 20
-9.11029
 11
-15.7431
 21
-8.72656
  0
LINE
  8
0
 10
-15.7431
 20
-8.72656
 11
-15.9526
 21
-8.33759
  0
LINE
  8
0
 10
-15.9526
 20
-8.33759
 11
-16.1524
 21
-7.94357
  0
LINE
  8
0
 10
-16.1524
 20
-7.94357
 11
-16.3425
 21
-7.54478
  0
LINE
  8
0
 10
-16.3425
 20
-7.54478
 11
-16.5227
 21
-7.14145
  0
LINE
  8
0
 10
-16.5227
 20
-7.14145
 11
-16.693
 21
-6.73381
  0
LINE
  8
0
 10
-16.693
 20
-6.73381
 11
-16.8532
 21
-6.32211
  0
LINE
  8
0
 10
-16.8532
 20
-6.32211
 11
-17.0033
 21
-5.90662
  0
LINE
  8
0
 10
-17.0033
 20
-5.90662
 11
-17.1431
 21
-5.48755
  0
LINE
  8
0
 10
-17.1431
 20
-5.48755
 11
-17.2726
 21
-5.06519
  0
LINE
  8
0
 10
-17.2726
 20
-5.06519
 11
-17.3917
 21
-4.63977
  0
LINE
  8
0
 10
-17.3917
 20
-4.63977
 11
-17.5004
 21
-4.21155
  0
LINE
  8
0
 10
-17.5004
 20
-4.21155
 11
-17.5984
 21
-3.78081
  0
LINE
  8
0
 10
-17.5984
 20
-3.78081
 11
-17.6859
 21
-3.34778
  0
LINE
  8
0
 10
-17.6859
 20
-3.34778
 11
-17.7628
 21
-2.91273
  0
LINE
  8
0
 10
-17.7628
 20
-2.91273
 11
-17.8289
 21
-2.47594
  0
LINE
  8
0
 10
-17.8289
 20
-2.47594
 11
-17.8843
 21
-2.03764
  0
LINE
  8
0
 10
-17.8843
 20
-2.03764
 11
-17.9289
 21
-1.59813
  0
LINE
  8
0
 10
-17.9289
 20
-1.59813
 11
-17.9627
 21
-1.15765
  0
LINE
  8
0
 10
-17.9627
 20
-1.15765
 11
-17.9857
 21
-0.716476
  0
LINE
  8
0
 10
-17.9857
 20
-0.716476
 11
-17.9979
 21
-0.274872
  0
LINE
  8
0
 10
-17.9979
 20
-0.274872
 11
-17.9992
 21
0.166885
  0
LINE
  8
0
 10
-17.9992
 20
0.166885
 11
-17.9897
 21
0.608566
  0
LINE
  8
0
 10
-17.9897
 20
0.608566
 11
-17.9693
 21
1.04987
  0
LINE
  8
0
 10
-17.9693
 20
1.04987
 11
-17.9382
 21
1.49054
  0
LINE
  8
0
 10
-17.9382
 20
1.49054
 11
-17.8962
 21
1.93031
  0
LINE
  8
0
 10
-17.8962
 20
1.93031
 11
-17.8434
 21
2.36893
  0
LINE
  8
0
 10
-17.8434
 20
2.36893
 11
-17.7799
 21
2.80612
  0
LINE
  8
0
 10
-17.7799
 20
2.80612
 11
-17.7057
 21
3.24161
  0
LINE
  8
0
 10
-17.7057
 20
3.24161
 11
-17.6208
 21
3.67516
  0
LINE
  8
0
 10
-17.6208
 20
3.67516
 11
-17.5253
 21
4.10649
  0
LINE
  8
0
 10
-17.5253
 20
4.10649
 11
-17.4193
 21
4.53534
  0
LINE
  8
0
 10
-17.4193
 20
4.53534
 11
-17.3027
 21
4.96147
  0
LINE
  8
0
 10
-17.3027
 20
4.96147
 11
-17.1757
 21
5.3846
  0
LINE
  8
0
 10
-17.1757
 20
5.3846
 11
-17.0384
 21
5.80449
  0
LINE
  8
0
 10
-17.0384
 20
5.80449
 11
-16.8908
 21
6.22089
  0
LINE
  8
0
 10
-16.8908
 20
6.22089
 11
-16.7331
 21
6.63353
  0
LINE
  8
0
 10
-16.7331
 20
6.63353
 11
-16.5652
 21
7.04219
  0
LINE
  8
0
 10
-16.5652
 20
7.04219
 11
-16.3874
 21
7.44659
  0
LINE
  8
0
 10
-16.3874
 20
7.44659
 11
-16.1997
 21
7.84653
  0
LINE
  8
0
 10
-16.1997
 20
7.84653
 11
-16.0023
 21
8.24173
  0
LINE
  8
0
 10
-16.0023
 20
8.24173
 11
-15.7952
 21
8.63196
  0
LINE
  8
0
 10
-15.7952
 20
8.63196
 11
-15.5786
 21
9.017
  0
LINE
  8
0
 10
-15.5786
 20
9.017
 11
-15.3526
 21
9.39659
  0
LINE
  8
0
 10
-15.3526
 20
9.39659
 11
-15.1174
 21
9.77054
  0
LINE
  8
0
 10
-15.1174
 20
9.77054
 11
-14.8731
 21
10.1386
  0
LINE
  8
0
 10
-14.8731
 20
10.1386
 11
-14.6198
 21
10.5005
  0
LINE
  8
0
 10
-14.6198
 20
10.5005
 11
-14.3577
 21
10.8562
  0
LINE
  8
0
 10
-14.3577
 20
10.8562
 11
-14.0869
 21
11.2053
  0
LINE
  8
0
 10
-14.0869
 20
11.2053
 11
-13.8077
 21
11.5476
  0
LINE
  8
0
 10
-13.8077
 20
11.5476
 11
-13.5202
 21
11.883
  0
LINE
  8
0
 10
-13.5202
 20
11.883
 11
-13.2245
 21
12.2112
  0
LINE
  8
0
 10
-13.2245
 20
12.2112
 11
-12.9208
 21
12.5321
  0
LINE
  8
0
 10
-12.9208
 20
12.5321
 11
-12.6094
 21
12.8454
  0
LINE
  8
0
 10
-12.6094
 20
12.8454
 11
-12.2903
 21
13.151
  0
LINE
  8
0
 10
-12.2903
 20
13.151
 11
-11.9639
 21
13.4486
  0
LINE
  8
0
 10
-11.9639
 20
13.4486
 11
-11.6302
 21
13.7382
  0
LINE
  8
0
 10
-11.6302
 20
13.7382
 11
-11.2896
 21
14.0195
  0
LINE
  8
0
 10
-11.2896
 20
14.0195
 11
-10.9421
 21
14.2923
  0
LINE
  8
0
 10
-10.9421
 20
14.2923
 11
-10.5881
 21
14.5565
  0
LINE
  8
0
 10
-10.5881
 20
14.5565
 11
-10.2276
 21
14.812
  0
LINE
  8
0
 10
-10.2276
 20
14.812
 11
-9.86105
 21
15.0585
  0
LINE
  8
0
 10
-9.86105
 20
15.0585
 11
-9.48854
 21
15.296
  0
LINE
  8
0
 10
-9.48854
 20
15.296
 11
-9.11029
 21
15.5242
  0
LINE
  8
0
 10
-9.11029
 20
15.5242
 11
-8.72656
 21
15.7431
  0
LINE
  8
0
 10
-8.72656
 20
15.7431
 11
-8.33759
 21
15.9526
  0
LINE
  8
0
 10
-8.33759
 20
15.9526
 11
-7.94357
 21
16.1524
  0
LINE
  8
0
 10
-7.94357
 20
16.1524
 11
-7.54478
 21
16.3425
  0
LINE
  8
0
 10
-7.54478
 20
16.3425
 11
-7.14145
 21
16.5227
  0
LINE
  8
0
 10
-7.14145
 20
16.5227
 11
-6.73381
 21
16.693
  0
LINE
  8
0
 10
-6.73381
 20
16.693
 11
-6.32211
 21
16.8532
  0
LINE
  8
0
 10
-6.32211
 20
16.8532
 11
-5.90662
 21
17.0033
  0
LINE
  8
0
 10
-5.90662
 20
17.0033
 11
-5.48755
 21
17.1431
  0
LINE
  8
0
 10
-5.48755
 20
17.1431
 11
-5.06519
 21
17.2726
  0
LINE
  8
0
 10
-5.06519
 20
17.2726
 11
-4.63977
 21
17.3917
  0
LINE
  8
0
 10
-4.63977
 20
17.3917
 11
-4.21155
 21
17.5004
  0
LINE
  8
0
 10
-4.21155
 20
17.5004
 11
-3.78081
 21
17.5984
  0
LINE
  8
0
 10
-3.78081
 20
17.5984
 11
-3.34778
 21
17.6859
  0
LINE
  8
0
 10
-3.34778
 20
17.6859
 11
-2.91273
 21
17.7628
  0
LINE
  8
0
 10
-2.91273
 20
17.7628
 11
-2.47594
 21
17.8289
  0
LINE
  8
0
 10
-2.47594
 20
17.8289
 11
-2.03764
 21
17.8843
  0
LINE
  8
0
 10
-2.03764
 20
17.8843
 11
-1.59813
 21
17.9289
  0
LINE
  8
0
 10
-1.59813
 20
17.9289
 11
-1.15765
 21
17.9627
  0
LINE
  8
0
 10
-1.15765
 20
17.9627
 11
-0.716476
 21
17.9857
  0
LINE
  8
0
 10
-0.716476
 20
17.9857
 11
-0.274872
 21
17.9979
  0
LINE
  8
0
 10
-0.274872
 20
17.9979
 11
0.166885
 21
17.9992
  0
LINE
  8
0
 10
0.166885
 20
17.9992
 11
0.608566
 21
17.9897
  0
LINE
  8
0
 10
0.608566
 20
17.9897
 11
1.04987
 21
17.9693
  0
LINE
  8
0
 10
1.04987
 20
17.9693
 11
1.49054
 21
17.9382
  0
LINE
  8
0
 10
1.49054
 20
17.9382
 11
1.93031
 21
17.8962
  0
LINE
  8
0
 10
1.93031
 20
17.8962
 11
2.36893
 21
17.8434
  0
LINE
  8
0
 10
2.36893
 20
17.8434
 11
2.80612
 21
17.7799
  0
LINE
  8
0
 10
2.80612
 20
17.7799
 11
3.24161
 21
17.7057
  0
LINE
  8
0
 10
3.24161
 20
17.7057
 11
3.67516
 21
17.6208
  0
LINE
  8
0
 10
3.67516
 20
17.6208
 11
4.10649
 21
17.5253
  0
LINE
  8
0
 10
4.10649
 20
17.5253
 11
4.53534
 21
17.4193
  0
LINE
  8
0
 10
4.53534
 20
17.4193
 11
4.96147
 21
17.3027
  0
LINE
  8
0
 10
4.96147
 20
17.3027
 11
5.3846
 21
17.1757
  0
LINE
  8
0
 10
5.3846
 20
17.1757
 11
5.80449
 21
17.0384
  0
LINE
  8
0
 10
5.80449
 20
17.0384
 11
6.22089
 21
16.8908
  0
LINE
  8
0
 10
6.22089
 20
16.8908
 11
6.63353
 21
16.7331
  0
LINE
  8
0
 10
6.63353
 20
16.7331
 11
7.04219
 21
16.5652
  0
LINE
  8
0
 10
7.04219
 20
16.5652
 11
7.44659
 21
16.3874
  0
LINE
  8
0
 10
7.44659
 20
16.3874
 11
7.84653
 21
16.1997
  0
LINE
  8
0
 10
7.84653
 20
16.1997
 11
8.24173
 21
16.0023
  0
LINE
  8
0
 10
8.24173
 20
16.0023
 11
8.63196
 21
15.7952
  0
LINE
  8
0
 10
8.63196
 20
15.7952
 11
9.017
 21
15.5786
  0
LINE
  8
0
 10
9.017
 20
15.5786
 11
9.39659
 21
15.3526
  0
LINE
  8
0
 10
9.39659
 20
15.3526
 11
9.77054
 21
15.1174
  0
LINE
  8
0
 10
9.77054
 20
15.1174
 11
10.1386
 21
14.8731
  0
LINE
  8
0
 10
10.1386
 20
14.8731
 11
10.5005
 21
14.6198
  0
LINE
  8
0
 10
10.5005
 20
14.6198
 11
10.8562
 21
14.3577
  0
LINE
  8
0
 10
10.8562
 20
14.3577
 11
11.2053
 21
14.0869
  0
LINE
  8
0
 10
11.2053
 20
14.0869
 11
11.5476
 21
13.8077
  0
LINE
  8
0
 10
11.5476
 20
13.8077
 11
11.883
 21
13.5202
  0
LINE
  8
0
 10
11.883
 20
13.5202
 11
12.2112
 21
13.2245
  0
LINE
  8
0
 10
12.2112
 20
13.2245
 11
12.5321
 21
12.9208
  0
LINE
  8
0
 10
12.5321
 20
12.9208
 11
12.8454
 21
12.6094
  0
LINE
  8
0
 10
12.8454
 20
12.6094
 11
13.151
 21
12.2903
  0
LINE
  8
0
 10
13.151
 20
12.2903
 11
13.4486
 21
11.9639
  0
LINE
  8
0
 10
13.4486
 20
11.9639
 11
13.7382
 21
11.6302
  0
LINE
  8
0
 10
13.7382
 20
11.6302
 11
14.0195
 21
11.2896
  0
LINE
  8
0
 10
14.0195
 20
11.2896
 11
14.2923
 21
10.9421
  0
LINE
  8
0
 10
14.2923
 20
10.9421
 11
14.5565
 21
10.5881
  0
LINE
  8
0
 10
14.5565
 20
10.5881
 11
14.812
 21
10.2276
  0
LINE
  8
0
 10
14.812
 20
10.2276
 11
15.0585
 21
9.86105
  0
LINE
  8
0
 10
15.0585
 20
9.86105
 11
15.296
 21
9.48854
  0
LINE
  8
0
 10
15.296
 20
9.48854
 11
15.5242
 21
9.11029
  0
LINE
  8
0
 10
15.5242
 20
9.11029
 11
15.7431
 21
8.72656
  0
LINE
  8
0
 10
15.7431
 20
8.72656
 11
15.9526
 21
8.33759
  0
LINE
  8
0
 10
15.9526
 20
8.33759
 11
16.1524
 21
7.94357
  0
LINE
  8
0
 10
16.1524
 20
7.94357
 11
16.3425
 21
7.54478
  0
LINE
  8
0
 10
16.3425
 20
7.54478
 11
16.5227
 21
7.14145
  0
LINE
  8
0
 10
16.5227
 20
7.14145
 11
16.693
 21
6.73381
  0
LINE
  8
0
 10
16.693
 20
6.73381
 11
16.8532
 21
6.32211
  0
LINE
  8
0
 10
16.8532
 20
6.32211
 11
17.0033
 21
5.90662
  0
LINE
  8
0
 10
17.0033
 20
5.90662
 11
17.1431
 21
5.48755
  0
LINE
  8
0
 10
17.1431
 20
5.48755
 11
17.2726
 21
5.06519
  0
LINE
  8
0
 10
17.2726
 20
5.06519
 11
17.3917
 21
4.63977
  0
LINE
  8
0
 10
17.3917
 20
4.63977
 11
17.5004
 21
4.21155
  0
LINE
  8
0
 10
17.5004
 20
4.21155
 11
17.5984
 21
3.78081
  0
LINE
  8
0
 10
17.5984
 20
3.78081
 11
17.6859
 21
3.34778
  0
LINE
  8
0
 10
17.6859
 20
3.34778
 11
17.7628
 21
2.91273
  0
LINE
  8
0
 10
17.7628
 20
2.91273
 11
17.8289
 21
2.47594
  0
LINE
  8
0
 10
17.8289
 20
2.47594
 11
17.8843
 21
2.03764
  0
LINE
  8
0
 10
17.8843
 20
2.03764
 11
17.9289
 21
1.59813
  0
LINE
  8
0
 10
17.9289
 20
1.59813
 11
17.9627
 21
1.15765
  0
LINE
  8
0
 10
17.9627
 20
1.15765
 11
17.9857
 21
0.716476
  0
LINE
  8
0
 10
17.9857
 20
0.716476
 11
17.9979
 21
0.274872
  0
LINE
  8
0
 10
17.9979
 20
0.274872
 11
17.9992
 21
-0.166885
  0
LINE
  8
0
 10
17.9992
 20
-0.166885
 11
17.9897
 21
-0.608566
  0
LINE
  8
0
 10
17.9897
 20
-0.608566
 11
17.9693
 21
-1.04987
  0
LINE
  8
0
 10
17.9693
 20
-1.04987
 11
17.9382
 21
-1.49054
  0
LINE
  8
0
 10
17.9382
 20
-1.49054
 11
17.8962
 21
-1.93031
  0
LINE
  8
0
 10
17.8962
 20
-1.93031
 11
17.8434
 21
-2.36893
  0
LINE
  8
0
 10
17.8434
 20
-2.36893
 11
17.7799
 21
-2.80612
  0
LINE
  8
0
 10
17.7799
 20
-2.80612
 11
17.7057
 21
-3.24161
  0
LINE
  8
0
 10
17.7057
 20
-3.24161
 11
17.6208
 21
-3.67516
  0
LINE
  8
0
 10
17.6208
 20
-3.67516
 11
17.5253
 21
-4.10649
  0
LINE
  8
0
 10
17.5253
 20
-4.10649
 11
17.4193
 21
-4.53534
  0
LINE
  8
0
 10
17.4193
 20
-4.53534
 11
17.3027
 21
-4.96147
  0
LINE
  8
0
 10
17.3027
 20
-4.96147
 11
17.1757
 21
-5.3846
  0
LINE
  8
0
 10
17.1757
 20
-5.3846
 11
17.0384
 21
-5.80449
  0
LINE
  8
0
 10
17.0384
 20
-5.80449
 11
16.8908
 21
-6.22089
  0
LINE
  8
0
 10
16.8908
 20
-6.22089
 11
16.7331
 21
-6.63353
  0
LINE
  8
0
 10
16.7331
 20
-6.63353
 11
16.5652
 21
-7.04219
  0
LINE
  8
0
 10
16.5652
 20
-7.04219
 11
16.3874
 21
-7.44659
  0
LINE
  8
0
 10
16.3874
 20
-7.44659
 11
16.1997
 21
-7.84653
  0
LINE
  8
0
 10
16.1997
 20
-7.84653
 11
16.0023
 21
-8.24173
  0
LINE
  8
0
 10
16.0023
 20
-8.24173
 11
15.7952
 21
-8.63196
  0
LINE
  8
0
 10
15.7952
 20
-8.63196
 11
15.5786
 21
-9.017
  0
LINE
  8
0
 10
15.5786
 20
-9.017
 11
15.3526
 21
-9.39659
  0
LINE
  8
0
 10
15.3526
 20
-9.39659
 11
15.1174
 21
-9.77054
  0
LINE
  8
0
 10
15.1174
 20
-9.77054
 11
14.8731
 21
-10.1386
  0
LINE
  8
0
 10
14.8731
 20
-10.1386
 11
14.6198
 21
-10.5005
  0
LINE
  8
0
 10
14.6198
 20
-10.5005
 11
14.3577
 21
-10.8562
  0
LINE
  8
0
 10
14.3577
 20
-10.8562
 11
14.0869
 21
-11.2053
  0
LINE
  8
0
 10
14.0869
 20
-11.2053
 11
13.8077
 21
-11.5476
  0
LINE
  8
0
 10
13.8077
 20
-11.5476
 11
13.5202
 21
-11.883
  0
LINE
  8
0
 10
13.5202
 20
-11.883
 11
13.2245
 21
-12.2112
  0
LINE
  8
0
 10
13.2245
 20
-12.2112
 11
12.9208
 21
-12.5321
  0
LINE
  8
0
 10
12.9208
 20
-12.5321
 11
12.6094
 21
-12.8454
  0
LINE
  8
0
 10
12.6094
 20
-12.8454
 11
12.2903
 21
-13.151
  0
LINE
  8
0
 10
12.2903
 20
-13.151
 11
11.9639
 21
-13.4486
  0
LINE
  8
0
 10
11.9639
 20
-13.4486
 11
11.6302
 21
-13.7382
  0
LINE
  8
0
 10
11.6302
 20
-13.7382
 11
11.2896
 21
-14.0195
  0
LINE
  8
0
 10
11.2896
 20
-14.0195
 11
10.9421
 21
-14.2923
  0
LINE
  8
0
 10
10.9421
 20
-14.2923
 11
10.5881
 21
-14.5565
  0
LINE
  8
0
 10
10.5881
 20
-14.5565
 11
10.2276
 21
-14.812
  0
LINE
  8
0
 10
10.2276
 20
-14.812
 11
9.86105
 21
-15.0585
  0
LINE
  8
0
 10
9.86105
 20
-15.0585
 11
9.48854
 21
-15.296
  0
LINE
  8
0
 10
9.48854
 20
-15.296
 11
9.11029
 21
-15.5242
  0
LINE
  8
0
 10
9.11029
 20
-15.5242
 11
8.72656
 21
-15.7431
  0
LINE
  8
0
 10
8.72656
 20
-15.7431
 11
8.33759
 21
-15.9526
  0
LINE
  8
0
 10
8.33759
 20
-15.9526
 11
7.94357
 21
-16.1524
  0
LINE
  8
0
 10
7.94357
 20
-16.1524
 11
7.54478
 21
-16.3425
  0
LINE
  8
0
 10
7.54478
 20
-16.3425
 11
7.14145
 21
-16.5227
  0
LINE
  8
0
 10
7.14145
 20
-16.5227
 11
6.73381
 21
-16.693
  0
LINE
  8
0
 10
6.73381
 20
-16.693
 11
6.32211
 21
-16.8532
  0
LINE
  8
0
 10
6.32211
 20
-16.8532
 11
5.90662
 21
-17.0033
  0
LINE
  8
0
 10
5.90662
 20
-17.0033
 11
5.48755
 21
-17.1431
  0
LINE
  8
0
 10
5.48755
 20
-17.1431
 11
5.06519
 21
-17.2726
  0
LINE
  8
0
 10
5.06519
 20
-17.2726
 11
4.63977
 21
-17.3917
  0
LINE
  8
0
 10
4.63977
 20
-17.3917
 11
4.21155
 21
-17.5004
  0
LINE
  8
0
 10
4.21155
 20
-17.5004
 11
3.78081
 21
-17.5984
  0
LINE
  8
0
 10
3.78081
 20
-17.5984
 11
3.34778
 21
-17.6859
  0
LINE
  8
0
 10
3.34778
 20
-17.6859
 11
2.91273
 21
-17.7628
  0
LINE
  8
0
 10
2.91273
 20
-17.7628
 11
2.47594
 21
-17.8289
  0
LINE
  8
0
 10
2.47594
 20
-17.8289
 11
2.03764
 21
-17.8843
  0
LINE
  8
0
 10
2.03764
 20
-17.8843
 11
1.59813
 21
-17.9289
  0
LINE
  8
0
 10
1.59813
 20
-17.9289
 11
1.15765
 21
-17.9627
  0
LINE
  8
0
 10
1.15765
 20
-17.9627
 11
0.716476
 21
-17.9857
  0
LINE
  8
0
 10
0.716476
 20
-17.9857
 11
0.274872
 21
-17.9979
  0
LINE
  8
0
 10
0.274872
 20
-17.9979
 11
-0.166885
 21
-17.9992
  0
LINE
  8
0
 10
-0.166885
 20
-17.9992
 11
-0.608566
 21
-17.9897
  0
LINE
  8
0
 10
15.0366
 20
13.5103
 11
14.9269
 21
13.5117
  0
LINE
  8
0
 10
14.9269
 20
13.5117
 11
14.8176
 21
13.5211
  0
LINE
  8
0
 10
14.8176
 20
13.5211
 11
14.7093
 21
13.5385
  0
LINE
  8
0
 10
14.7093
 20
13.5385
 11
14.6026
 21
13.5639
  0
LINE
  8
0
 10
14.6026
 20
13.5639
 11
14.498
 21
13.597
  0
LINE
  8
0
 10
14.498
 20
13.597
 11
14.3961
 21
13.6377
  0
LINE
  8
0
 10
14.3961
 20
13.6377
 11
14.2976
 21
13.6858
  0
LINE
  8
0
 10
14.2976
 20
13.6858
 11
14.2028
 21
13.7411
  0
LINE
  8
0
 10
14.2028
 20
13.7411
 11
14.1123
 21
13.8031
  0
LINE
  8
0
 10
14.1123
 20
13.8031
 11
14.0267
 21
13.8717
  0
LINE
  8
0
 10
14.0267
 20
13.8717
 11
13.9463
 21
13.9463
  0
LINE
  8
0
 10
13.9463
 20
13.9463
 11
13.8717
 21
14.0267
  0
LINE
  8
0
 10
13.8717
 20
14.0267
 11
13.8031
 21
14.1123
  0
LINE
  8
0
 10
13.8031
 20
14.1123
 11
13.7411
 21
14.2028
  0
LINE
  8
0
 10
13.7411
 20
14.2028
 11
13.6858
 21
14.2976
  0
LINE
  8
0
 10
13.6858
 20
14.2976
 11
13.6377
 21
14.3961
  0
LINE
  8
0
 10
13.6377
 20
14.3961
 11
13.597
 21
14.498
  0
LINE
  8
0
 10
13.597
 20
14.498
 11
13.5639
 21
14.6026
  0
LINE
  8
0
 10
13.5639
 20
14.6026
 11
13.5385
 21
14.7093
  0
LINE
  8
0
 10
13.5385
 20
14.7093
 11
13.5211
 21
14.8176
  0
LINE
  8
0
 10
13.5211
 20
14.8176
 11
13.5117
 21
14.9269
  0
LINE
  8
0
 10
13.5117
 20
14.9269
 11
13.5103
 21
15.0366
  0
LINE
  8
0
 10
13.5103
 20
15.0366
 11
13.5171
 21
15.146
  0
LINE
  8
0
 10
13.5171
 20
15.146
 11
13.5318
 21
15.2547
  0
LINE
  8
0
 10
13.5318
 20
15.2547
 11
13.5546
 21
15.3621
  0
LINE
  8
0
 10
13.5546
 20
15.3621
 11
13.5851
 21
15.4674
  0
LINE
  8
0
 10
13.5851
 20
15.4674
 11
13.6233
 21
15.5702
  0
LINE
  8
0
 10
13.6233
 20
15.5702
 11
13.669
 21
15.67
  0
LINE
  8
0
 10
13.669
 20
15.67
 11
13.7219
 21
15.7661
  0
LINE
  8
0
 10
13.7219
 20
15.7661
 11
13.7817
 21
15.858
  0
LINE
  8
0
 10
13.7817
 20
15.858
 11
13.8481
 21
15.9453
  0
LINE
  8
0
 10
13.8481
 20
15.9453
 11
13.9208
 21
16.0275
  0
LINE
  8
0
 10
13.9208
 20
16.0275
 11
13.9993
 21
16.1041
  0
LINE
  8
0
 10
13.9993
 20
16.1041
 11
14.0832
 21
16.1747
  0
LINE
  8
0
 10
14.0832
 20
16.1747
 11
14.1721
 21
16.239
  0
LINE
  8
0
 10
14.1721
 20
16.239
 11
14.2655
 21
16.2965
  0
LINE
  8
0
 10
14.2655
 20
16.2965
 11
14.3629
 21
16.347
  0
LINE
  8
0
 10
14.3629
 20
16.347
 11
14.4637
 21
16.3902
  0
LINE
  8
0
 10
14.4637
 20
16.3902
 11
14.5674
 21
16.4259
  0
LINE
  8
0
 10
14.5674
 20
16.4259
 11
14.6735
 21
16.4539
  0
LINE
  8
0
 10
14.6735
 20
16.4539
 11
14.7814
 21
16.474
  0
LINE
  8
0
 10
14.7814
 20
16.474
 11
14.8904
 21
16.4861
  0
LINE
  8
0
 10
14.8904
 20
16.4861
 11
15
 21
16.4901
  0
LINE
  8
0
 10
15
 20
16.4901
 11
15.1096
 21
16.4861
  0
LINE
  8
0
 10
15.1096
 20
16.4861
 11
15.2186
 21
16.474
  0
LINE
  8
0
 10
15.2186
 20
16.474
 11
15.3265
 21
16.4539
  0
LINE
  8
0
 10
15.3265
 20
16.4539
 11
15.4325
 21
16.4259
  0
LINE
  8
0
 10
15.4325
 20
16.4259
 11
15.5363
 21
16.3902
  0
LINE
  8
0
 10
15.5363
 20
16.3902
 11
15.6371
 21
16.347
  0
LINE
  8
0
 10
15.6371
 20
16.347
 11
15.7345
 21
16.2965
  0
LINE
  8
0
 10
15.7345
 20
16.2965
 11
15.8279
 21
16.239
  0
LINE
  8
0
 10
15.8279
 20
16.239
 11
15.9167
 21
16.1747
  0
LINE
  8
0
 10
15.9167
 20
16.1747
 11
16.0007
 21
16.1041
  0
LINE
  8
0
 10
16.0007
 20
16.1041
 11
16.0792
 21
16.0275
  0
LINE
  8
0
 10
16.0792
 20
16.0275
 11
16.1519
 21
15.9453
  0
LINE
  8
0
 10
16.1519
 20
15.9453
 11
16.2183
 21
15.858
  0
LINE
  8
0
 10
16.2183
 20
15.858
 11
16.2781
 21
15.7661
  0
LINE
  8
0
 10
16.2781
 20
15.7661
 11
16.331
 21
15.67
  0
LINE
  8
0
 10
16.331
 20
15.67
 11
16.3767
 21
15.5702
  0
LINE
  8
0
 10
16.3767
 20
15.5702
 11
16.4149
 21
15.4674
  0
LINE
  8
0
 10
16.4149
 20
15.4674
 11
16.4454
 21
15.3621
  0
LINE
  8
0
 10
16.4454
 20
15.3621
 11
16.4682
 21
15.2547
  0
LINE
  8
0
 10
16.4682
 20
15.2547
 11
16.4829
 21
15.146
  0
LINE
  8
0
 10
16.4829
 20
15.146
 11
16.4896
 21
15.0366
  0
LINE
  8
0
 10
16.4896
 20
15.0366
 11
16.4883
 21
14.9269
  0
LINE
  8
0
 10
16.4883
 20
14.9269
 11
16.4789
 21
14.8176
  0
LINE
  8
0
 10
16.4789
 20
14.8176
 11
16.4615
 21
14.7093
  0
LINE
  8
0
 10
16.4615
 20
14.7093
 11
16.4361
 21
14.6026
  0
LINE
  8
0
 10
16.4361
 20
14.6026
 11
16.403
 21
14.498
  0
LINE
  8
0
 10
16.403
 20
14.498
 11
16.3623
 21
14.3961
  0
LINE
  8
0
 10
16.3623
 20
14.3961
 11
16.3141
 21
14.2976
  0
LINE
  8
0
 10
16.3141
 20
14.2976
 11
16.2589
 21
14.2028
  0
LINE
  8
0
 10
16.2589
 20
14.2028
 11
16.1969
 21
14.1123
  0
LINE
  8
0
 10
16.1969
 20
14.1123
 11
16.1283
 21
14.0267
  0
LINE
  8
0
 10
16.1283
 20
14.0267
 11
16.0536
 21
13.9463
  0
LINE
  8
0
 10
16.0536
 20
13.9463
 11
15.9733
 21
13.8717
  0
LINE
  8
0
 10
15.9733
 20
13.8717
 11
15.8876
 21
13.8031
  0
LINE
  8
0
 10
15.8876
 20
13.8031
 11
15.7972
 21
13.7411
  0
LINE
  8
0
 10
15.7972
 20
13.7411
 11
15.7024
 21
13.6858
  0
LINE
  8
0
 10
15.7024
 20
13.6858
 11
15.6038
 21
13.6377
  0
LINE
  8
0
 10
15.6038
 20
13.6377
 11
15.502
 21
13.597
  0
LINE
  8
0
 10
15.502
 20
13.597
 11
15.3974
 21
13.5639
  0
LINE
  8
0
 10
15.3974
 20
13.5639
 11
15.2907
 21
13.5385
  0
LINE
  8
0
 10
15.2907
 20
13.5385
 11
15.1824
 21
13.5211
  0
LINE
  8
0
 10
15.1824
 20
13.5211
 11
15.0731
 21
13.5117
  0
LINE
  8
0
 10
15.0731
 20
13.5117
 11
15.0366
 21
13.5103
  0
LINE
  8
0
 10
-14.9634
 20
13.5103
 11
-15.0731
 21
13.5117
  0
LINE
  8
0
 10
-15.0731
 20
13.5117
 11
-15.1824
 21
13.5211
  0
LINE
  8
0
 10
-15.1824
 20
13.5211
 11
-15.2907
 21
13.5385
  0
LINE
  8
0
 10
-15.2907
 20
13.5385
 11
-15.3974
 21
13.5639
  0
LINE
  8
0
 10
-15.3974
 20
13.5639
 11
-15.502
 21
13.597
  0
LINE
  8
0
 10
-15.502
 20
13.597
 11
-15.6038
 21
13.6377
  0
LINE
  8
0
 10
-15.6038
 20
13.6377
 11
-15.7024
 21
13.6858
  0
LINE
  8
0
 10
-15.7024
 20
13.6858
 11
-15.7972
 21
13.7411
  0
LINE
  8
0
 10
-15.7972
 20
13.7411
 11
-15.8876
 21
13.8031
  0
LINE
  8
0
 10
-15.8876
 20
13.8031
 11
-15.9733
 21
13.8717
  0
LINE
  8
0
 10
-15.9733
 20
13.8717
 11
-16.0536
 21
13.9463
  0
LINE
  8
0
 10
-16.0536
 20
13.9463
 11
-16.1283
 21
14.0267
  0
LINE
  8
0
 10
-16.1283
 20
14.0267
 11
-16.1969
 21
14.1123
  0
LINE
  8
0
 10
-16.1969
 20
14.1123
 11
-16.2589
 21
14.2028
  0
LINE
  8
0
 10
-16.2589
 20
14.2028
 11
-16.3141
 21
14.2976
  0
LINE
  8
0
 10
-16.3141
 20
14.2976
 11
-16.3623
 21
14.3961
  0
LINE
  8
0
 10
-16.3623
 20
14.3961
 11
-16.403
 21
14.498
  0
LINE
  8
0
 10
-16.403
 20
14.498
 11
-16.4361
 21
14.6026
  0
LINE
  8
0
 10
-16.4361
 20
14.6026
 11
-16.4615
 21
14.7093
  0
LINE
  8
0
 10
-16.4615
 20
14.7093
 11
-16.4789
 21
14.8176
  0
LINE
  8
0
 10
-16.4789
 20
14.8176
 11
-16.4883
 21
14.9269
  0
LINE
  8
0
 10
-16.4883
 20
14.9269
 11
-16.4896
 21
15.0366
  0
LINE
  8
0
 10
-16.4896
 20
15.0366
 11
-16.4829
 21
15.146
  0
LINE
  8
0
 10
-16.4829
 20
15.146
 11
-16.4682
 21
15.2547
  0
LINE
  8
0
 10
-16.4682
 20
15.2547
 11
-16.4454
 21
15.3621
  0
LINE
  8
0
 10
-16.4454
 20
15.3621
 11
-16.4149
 21
15.4674
  0
LINE
  8
0
 10
-16.4149
 20
15.4674
 11
-16.3767
 21
15.5702
  0
LINE
  8
0
 10
-16.3767
 20
15.5702
 11
-16.331
 21
15.67
  0
LINE
  8
0
 10
-16.331
 20
15.67
 11
-16.2781
 21
15.7661
  0
LINE
  8
0
 10
-16.2781
 20
15.7661
 11
-16.2183
 21
15.858
  0
LINE
  8
0
 10
-16.2183
 20
15.858
 11
-16.1519
 21
15.9453
  0
LINE
  8
0
 10
-16.1519
 20
15.9453
 11
-16.0792
 21
16.0275
  0
LINE
  8
0
 10
-16.0792
 20
16.0275
 11
-16.0007
 21
16.1041
  0
LINE
  8
0
 10
-16.0007
 20
16.1041
 11
-15.9167
 21
16.1747
  0
LINE
  8
0
 10
-15.9167
 20
16.1747
 11
-15.8279
 21
16.239
  0
LINE
  8
0
 10
-15.8279
 20
16.239
 11
-15.7345
 21
16.2965
  0
LINE
  8
0
 10
-15.7345
 20
16.2965
 11
-15.6371
 21
16.347
  0
LINE
  8
0
 10
-15.6371
 20
16.347
 11
-15.5363
 21
16.3902
  0
LINE
  8
0
 10
-15.5363
 20
16.3902
 11
-15.4325
 21
16.4259
  0
LINE
  8
0
 10
-15.4325
 20
16.4259
 11
-15.3265
 21
16.4539
  0
LINE
  8
0
 10
-15.3265
 20
16.4539
 11
-15.2186
 21
16.474
  0
LINE
  8
0
 10
-15.2186
 20
16.474
 11
-15.1096
 21
16.4861
  0
LINE
  8
0
 10
-15.1096
 20
16.4861
 11
-15
 21
16.4901
  0
LINE
  8
0
 10
-15
 20
16.4901
 11
-14.8904
 21
16.4861
  0
LINE
  8
0
 10
-14.8904
 20
16.4861
 11
-14.7814
 21
16.474
  0
LINE
  8
0
 10
-14.7814
 20
16.474
 11
-14.6735
 21
16.4539
  0
LINE
  8
0
 10
-14.6735
 20
16.4539
 11
-14.5674
 21
16.4259
  0
LINE
  8
0
 10
-14.5674
 20
16.4259
 11
-14.4637
 21
16.3902
  0
LINE
  8
0
 10
-14.4637
 20
16.3902
 11
-14.3629
 21
16.347
  0
LINE
  8
0
 10
-14.3629
 20
16.347
 11
-14.2655
 21
16.2965
  0
LINE
  8
0
 10
-14.2655
 20
16.2965
 11
-14.1721
 21
16.239
  0
LINE
  8
0
 10
-14.1721
 20
16.239
 11
-14.0832
 21
16.1747
  0
LINE
  8
0
 10
-14.0832
 20
16.1747
 11
-13.9993
 21
16.1041
  0
LINE
  8
0
 10
-13.9993
 20
16.1041
 11
-13.9208
 21
16.0275
  0
LINE
  8
0
 10
-13.9208
 20
16.0275
 11
-13.8481
 21
15.9453
  0
LINE
  8
0
 10
-13.8481
 20
15.9453
 11
-13.7817
 21
15.858
  0
LINE
  8
0
 10
-13.7817
 20
15.858
 11
-13.7219
 21
15.7661
  0
LINE
  8
0
 10
-13.7219
 20
15.7661
 11
-13.669
 21
15.67
  0
LINE
  8
0
 10
-13.669
 20
15.67
 11
-13.6233
 21
15.5702
  0
LINE
  8
0
 10
-13.6233
 20
15.5702
 11
-13.5851
 21
15.4674
  0
LINE
  8
0
 10
-13.5851
 20
15.4674
 11
-13.5546
 21
15.3621
  0
LINE
  8
0
 10
-13.5546
 20
15.3621
 11
-13.5318
 21
15.2547
  0
LINE
  8
0
 10
-13.5318
 20
15.2547
 11
-13.5171
 21
15.146
  0
LINE
  8
0
 10
-13.5171
 20
15.146
 11
-13.5103
 21
15.0366
  0
LINE
  8
0
 10
-13.5103
 20
15.0366
 11
-13.5117
 21
14.9269
  0
LINE
  8
0
 10
-13.5117
 20
14.9269
 11
-13.5211
 21
14.8176
  0
LINE
  8
0
 10
-13.5211
 20
14.8176
 11
-13.5385
 21
14.7093
  0
LINE
  8
0
 10
-13.5385
 20
14.7093
 11
-13.5639
 21
14.6026
  0
LINE
  8
0
 10
-13.5639
 20
14.6026
 11
-13.597
 21
14.498
  0
LINE
  8
0
 10
-13.597
 20
14.498
 11
-13.6377
 21
14.3961
  0
LINE
  8
0
 10
-13.6377
 20
14.3961
 11
-13.6858
 21
14.2976
  0
LINE
  8
0
 10
-13.6858
 20
14.2976
 11
-13.7411
 21
14.2028
  0
LINE
  8
0
 10
-13.7411
 20
14.2028
 11
-13.8031
 21
14.1123
  0
LINE
  8
0
 10
-13.8031
 20
14.1123
 11
-13.8717
 21
14.0267
  0
LINE
  8
0
 10
-13.8717
 20
14.0267
 11
-13.9463
 21
13.9463
  0
LINE
  8
0
 10
-13.9463
 20
13.9463
 11
-14.0267
 21
13.8717
  0
LINE
  8
0
 10
-14.0267
 20
13.8717
 11
-14.1123
 21
13.8031
  0
LINE
  8
0
 10
-14.1123
 20
13.8031
 11
-14.2028
 21
13.7411
  0
LINE
  8
0
 10
-14.2028
 20
13.7411
 11
-14.2976
 21
13.6858
  0
LINE
  8
0
 10
-14.2976
 20
13.6858
 11
-14.3961
 21
13.6377
  0
LINE
  8
0
 10
-14.3961
 20
13.6377
 11
-14.498
 21
13.597
  0
LINE
  8
0
 10
-14.498
 20
13.597
 11
-14.6026
 21
13.5639
  0
LINE
  8
0
 10
-14.6026
 20
13.5639
 11
-14.7093
 21
13.5385
  0
LINE
  8
0
 10
-14.7093
 20
13.5385
 11
-14.8176
 21
13.5211
  0
LINE
  8
0
 10
-14.8176
 20
13.5211
 11
-14.9269
 21
13.5117
  0
LINE
  8
0
 10
-14.9269
 20
13.5117
 11
-14.9634
 21
13.5103
  0
LINE
  8
0
 10
21.6506
 20
12.5
 11
26.2459
 21
14.5942
  0
LINE
  8
0
 10
26.2459
 20
14.5942
 11
28.3401
 21
9.99889
  0
LINE
  8
0
 10
28.3401
 20
9.99889
 11
23.7448
 21
7.90469
  0
LINE
  8
0
 10
23.7448
 20
7.90469
 11
21.6506
 21
12.5
  0
LINE
  8
0
 10
-28.4076
 20
9.73911
 11
-26.3939
 21
14.3703
  0
LINE
  8
0
 10
-26.3939
 20
14.3703
 11
-21.7627
 21
12.3566
  0
LINE
  8
0
 10
-21.7627
 20
12.3566
 11
-23.7764
 21
7.72542
  0
LINE
  8
0
 10
-23.7764
 20
7.72542
 11
-28.4076
 21
9.73911
  0
LINE
  8
0
 10
23.7764
 20
7.72542
 11
28.7067
 21
8.81844
  0
LINE
  8
0
 10
28.7067
 20
8.81844
 11
29.7997
 21
3.88814
  0
LINE
  8
0
 10
29.7997
 20
3.88814
 11
24.8694
 21
2.79512
  0
LINE
  8
0
 10
24.8694
 20
2.79512
 11
23.7764
 21
7.72542
  0
LINE
  8
0
 10
-29.8117
 20
3.62001
 11
-28.8049
 21
8.56863
  0
LINE
  8
0
 10
-28.8049
 20
8.56863
 11
-23.8562
 21
7.56183
  0
LINE
  8
0
 10
-23.8562
 20
7.56183
 11
-24.863
 21
2.6132
  0
LINE
  8
0
 10
-24.863
 20
2.6132
 11
-29.8117
 21
3.62001
  0
LINE
  8
0
 10
24.863
 20
2.6132
 11
29.9128
 21
2.65727
  0
LINE
  8
0
 10
29.9128
 20
2.65727
 11
29.9569
 21
-2.39252
  0
LINE
  8
0
 10
29.9569
 20
-2.39252
 11
24.9071
 21
-2.43658
  0
LINE
  8
0
 10
24.9071
 20
-2.43658
 11
24.863
 21
2.6132
  0
LINE
  8
0
 10
-29.9569
 20
2.39252
 11
-24.9071
 21
2.43658
  0
LINE
  8
0
 10
-24.9071
 20
2.43658
 11
-24.863
 21
-2.6132
  0
LINE
  8
0
 10
-24.863
 20
-2.6132
 11
-29.9128
 21
-2.65727
  0
LINE
  8
0
 10
-29.9128
 20
-2.65727
 11
-29.9569
 21
2.39252
  0
LINE
  8
0
 10
23.8562
 20
-7.56183
 11
24.863
 21
-2.6132
  0
LINE
  8
0
 10
24.863
 20
-2.6132
 11
29.8117
 21
-3.62001
  0
LINE
  8
0
 10
29.8117
 20
-3.62001
 11
28.8049
 21
-8.56863
  0
LINE
  8
0
 10
28.8049
 20
-8.56863
 11
23.8562
 21
-7.56183
  0
LINE
  8
0
 10
-29.7997
 20
-3.88814
 11
-24.8694
 21
-2.79512
  0
LINE
  8
0
 10
-24.8694
 20
-2.79512
 11
-23.7764
 21
-7.72542
  0
LINE
  8
0
 10
-23.7764
 20
-7.72542
 11
-28.7067
 21
-8.81844
  0
LINE
  8
0
 10
-28.7067
 20
-8.81844
 11
-29.7997
 21
-3.88814
  0
LINE
  8
0
 10
21.7627
 20
-12.3566
 11
23.7764
 21
-7.72542
  0
LINE
  8
0
 10
23.7764
 20
-7.72542
 11
28.4076
 21
-9.73911
  0
LINE
  8
0
 10
28.4076
 20
-9.73911
 11
26.3939
 21
-14.3703
  0
LINE
  8
0
 10
26.3939
 20
-14.3703
 11
21.7627
 21
-12.3566
  0
LINE
  8
0
 10
-28.3401
 20
-9.99889
 11
-23.7448
 21
-7.90469
  0
LINE
  8
0
 10
-23.7448
 20
-7.90469
 11
-21.6506
 21
-12.5
  0
LINE
  8
0
 10
-21.6506
 20
-12.5
 11
-26.2459
 21
-14.5942
  0
LINE
  8
0
 10
-26.2459
 20
-14.5942
 11
-28.3401
 21
-9.99889
  0
LINE
  8
0
 10
18.7181
 20
-16.6113
 11
21.6506
 21
-12.5
  0
LINE
  8
0
 10
21.6506
 20
-12.5
 11
25.7619
 21
-15.4325
  0
LINE
  8
0
 10
25.7619
 20
-15.4325
 11
22.8294
 21
-19.5438
  0
LINE
  8
0
 10
22.8294
 20
-19.5438
 11
18.7181
 21
-16.6113
  0
LINE
  8
0
 10
-25.642
 20
-15.6726
 11
-21.5825
 21
-12.6688
  0
LINE
  8
0
 10
-21.5825
 20
-12.6688
 11
-18.5786
 21
-16.7283
  0
LINE
  8
0
 10
-18.5786
 20
-16.7283
 11
-22.6381
 21
-19.7321
  0
LINE
  8
0
 10
-22.6381
 20
-19.7321
 11
-25.642
 21
-15.6726
  0
LINE
  8
0
 10
-14.9634
 20
-16.4896
 11
-15.0731
 21
-16.4883
  0
LINE
  8
0
 10
-15.0731
 20
-16.4883
 11
-15.1824
 21
-16.4789
  0
LINE
  8
0
 10
-15.1824
 20
-16.4789
 11
-15.2907
 21
-16.4615
  0
LINE
  8
0
 10
-15.2907
 20
-16.4615
 11
-15.3974
 21
-16.4361
  0
LINE
  8
0
 10
-15.3974
 20
-16.4361
 11
-15.502
 21
-16.403
  0
LINE
  8
0
 10
-15.502
 20
-16.403
 11
-15.6038
 21
-16.3623
  0
LINE
  8
0
 10
-15.6038
 20
-16.3623
 11
-15.7024
 21
-16.3141
  0
LINE
  8
0
 10
-15.7024
 20
-16.3141
 11
-15.7972
 21
-16.2589
  0
LINE
  8
0
 10
-15.7972
 20
-16.2589
 11
-15.8876
 21
-16.1969
  0
LINE
  8
0
 10
-15.8876
 20
-16.1969
 11
-15.9733
 21
-16.1283
  0
LINE
  8
0
 10
-15.9733
 20
-16.1283
 11
-16.0536
 21
-16.0536
  0
LINE
  8
0
 10
-16.0536
 20
-16.0536
 11
-16.1283
 21
-15.9733
  0
LINE
  8
0
 10
-16.1283
 20
-15.9733
 11
-16.1969
 21
-15.8876
  0
LINE
  8
0
 10
-16.1969
 20
-15.8876
 11
-16.2589
 21
-15.7972
  0
LINE
  8
0
 10
-16.2589
 20
-15.7972
 11
-16.3141
 21
-15.7024
  0
LINE
  8
0
 10
-16.3141
 20
-15.7024
 11
-16.3623
 21
-15.6038
  0
LINE
  8
0
 10
-16.3623
 20
-15.6038
 11
-16.403
 21
-15.502
  0
LINE
  8
0
 10
-16.403
 20
-15.502
 11
-16.4361
 21
-15.3974
  0
LINE
  8
0
 10
-16.4361
 20
-15.3974
 11
-16.4615
 21
-15.2907
  0
LINE
  8
0
 10
-16.4615
 20
-15.2907
 11
-16.4789
 21
-15.1824
  0
LINE
  8
0
 10
-16.4789
 20
-15.1824
 11
-16.4883
 21
-15.0731
  0
LINE
  8
0
 10
-16.4883
 20
-15.0731
 11
-16.4896
 21
-14.9634
  0
LINE
  8
0
 10
-16.4896
 20
-14.9634
 11
-16.4829
 21
-14.8539
  0
LINE
  8
0
 10
-16.4829
 20
-14.8539
 11
-16.4682
 21
-14.7452
  0
LINE
  8
0
 10
-16.4682
 20
-14.7452
 11
-16.4454
 21
-14.6379
  0
LINE
  8
0
 10
-16.4454
 20
-14.6379
 11
-16.4149
 21
-14.5326
  0
LINE
  8
0
 10
-16.4149
 20
-14.5326
 11
-16.3767
 21
-14.4298
  0
LINE
  8
0
 10
-16.3767
 20
-14.4298
 11
-16.331
 21
-14.33
  0
LINE
  8
0
 10
-16.331
 20
-14.33
 11
-16.2781
 21
-14.2339
  0
LINE
  8
0
 10
-16.2781
 20
-14.2339
 11
-16.2183
 21
-14.142
  0
LINE
  8
0
 10
-16.2183
 20
-14.142
 11
-16.1519
 21
-14.0547
  0
LINE
  8
0
 10
-16.1519
 20
-14.0547
 11
-16.0792
 21
-13.9725
  0
LINE
  8
0
 10
-16.0792
 20
-13.9725
 11
-16.0007
 21
-13.8959
  0
LINE
  8
0
 10
-16.0007
 20
-13.8959
 11
-15.9167
 21
-13.8253
  0
LINE
  8
0
 10
-15.9167
 20
-13.8253
 11
-15.8279
 21
-13.761
  0
LINE
  8
0
 10
-15.8279
 20
-13.761
 11
-15.7345
 21
-13.7035
  0
LINE
  8
0
 10
-15.7345
 20
-13.7035
 11
-15.6371
 21
-13.653
  0
LINE
  8
0
 10
-15.6371
 20
-13.653
 11
-15.5363
 21
-13.6097
  0
LINE
  8
0
 10
-15.5363
 20
-13.6097
 11
-15.4325
 21
-13.5741
  0
LINE
  8
0
 10
-15.4325
 20
-13.5741
 11
-15.3265
 21
-13.5461
  0
LINE
  8
0
 10
-15.3265
 20
-13.5461
 11
-15.2186
 21
-13.526
  0
LINE
  8
0
 10
-15.2186
 20
-13.526
 11
-15.1096
 21
-13.5139
  0
LINE
  8
0
 10
-15.1096
 20
-13.5139
 11
-15
 21
-13.5099
  0
LINE
  8
0
 10
-15
 20
-13.5099
 11
-14.8904
 21
-13.5139
  0
LINE
  8
0
 10
-14.8904
 20
-13.5139
 11
-14.7814
 21
-13.526
  0
LINE
  8
0
 10
-14.7814
 20
-13.526
 11
-14.6735
 21
-13.5461
  0
LINE
  8
0
 10
-14.6735
 20
-13.5461
 11
-14.5674
 21
-13.5741
  0
LINE
  8
0
 10
-14.5674
 20
-13.5741
 11
-14.4637
 21
-13.6097
  0
LINE
  8
0
 10
-14.4637
 20
-13.6097
 11
-14.3629
 21
-13.653
  0
LINE
  8
0
 10
-14.3629
 20
-13.653
 11
-14.2655
 21
-13.7035
  0
LINE
  8
0
 10
-14.2655
 20
-13.7035
 11
-14.1721
 21
-13.761
  0
LINE
  8
0
 10
-14.1721
 20
-13.761
 11
-14.0832
 21
-13.8253
  0
LINE
  8
0
 10
-14.0832
 20
-13.8253
 11
-13.9993
 21
-13.8959
  0
LINE
  8
0
 10
-13.9993
 20
-13.8959
 11
-13.9208
 21
-13.9725
  0
LINE
  8
0
 10
-13.9208
 20
-13.9725
 11
-13.8481
 21
-14.0547
  0
LINE
  8
0
 10
-13.8481
 20
-14.0547
 11
-13.7817
 21
-14.142
  0
LINE
  8
0
 10
-13.7817
 20
-14.142
 11
-13.7219
 21
-14.2339
  0
LINE
  8
0
 10
-13.7219
 20
-14.2339
 11
-13.669
 21
-14.33
  0
LINE
  8
0
 10
-13.669
 20
-14.33
 11
-13.6233
 21
-14.4298
  0
LINE
  8
0
 10
-13.6233
 20
-14.4298
 11
-13.5851
 21
-14.5326
  0
LINE
  8
0
 10
-13.5851
 20
-14.5326
 11
-13.5546
 21
-14.6379
  0
LINE
  8
0
 10
-13.5546
 20
-14.6379
 11
-13.5318
 21
-14.7452
  0
LINE
  8
0
 10
-13.5318
 20
-14.7452
 11
-13.5171
 21
-14.8539
  0
LINE
  8
0
 10
-13.5171
 20
-14.8539
 11
-13.5103
 21
-14.9634
  0
LINE
  8
0
 10
-13.5103
 20
-14.9634
 11
-13.5117
 21
-15.0731
  0
LINE
  8
0
 10
-13.5117
 20
-15.0731
 11
-13.5211
 21
-15.1824
  0
LINE
  8
0
 10
-13.5211
 20
-15.1824
 11
-13.5385
 21
-15.2907
  0
LINE
  8
0
 10
-13.5385
 20
-15.2907
 11
-13.5639
 21
-15.3974
  0
LINE
  8
0
 10
-13.5639
 20
-15.3974
 11
-13.597
 21
-15.502
  0
LINE
  8
0
 10
-13.597
 20
-15.502
 11
-13.6377
 21
-15.6038
  0
LINE
  8
0
 10
-13.6377
 20
-15.6038
 11
-13.6858
 21
-15.7024
  0
LINE
  8
0
 10
-13.6858
 20
-15.7024
 11
-13.7411
 21
-15.7972
  0
LINE
  8
0
 10
-13.7411
 20
-15.7972
 11
-13.8031
 21
-15.8876
  0
LINE
  8
0
 10
-13.8031
 20
-15.8876
 11
-13.8717
 21
-15.9733
  0
LINE
  8
0
 10
-13.8717
 20
-15.9733
 11
-13.9463
 21
-16.0536
  0
LINE
  8
0
 10
-13.9463
 20
-16.0536
 11
-14.0267
 21
-16.1283
  0
LINE
  8
0
 10
-14.0267
 20
-16.1283
 11
-14.1123
 21
-16.1969
  0
LINE
  8
0
 10
-14.1123
 20
-16.1969
 11
-14.2028
 21
-16.2589
  0
LINE
  8
0
 10
-14.2028
 20
-16.2589
 11
-14.2976
 21
-16.3141
  0
LINE
  8
0
 10
-14.2976
 20
-16.3141
 11
-14.3961
 21
-16.3623
  0
LINE
  8
0
 10
-14.3961
 20
-16.3623
 11
-14.498
 21
-16.403
  0
LINE
  8
0
 10
-14.498
 20
-16.403
 11
-14.6026
 21
-16.4361
  0
LINE
  8
0
 10
-14.6026
 20
-16.4361
 11
-14.7093
 21
-16.4615
  0
LINE
  8
0
 10
-14.7093
 20
-16.4615
 11
-14.8176
 21
-16.4789
  0
LINE
  8
0
 10
-14.8176
 20
-16.4789
 11
-14.9269
 21
-16.4883
  0
LINE
  8
0
 10
-14.9269
 20
-16.4883
 11
-14.9634
 21
-16.4896
  0
LINE
  8
0
 10
15.0366
 20
-16.4896
 11
14.9269
 21
-16.4883
  0
LINE
  8
0
 10
14.9269
 20
-16.4883
 11
14.8176
 21
-16.4789
  0
LINE
  8
0
 10
14.8176
 20
-16.4789
 11
14.7093
 21
-16.4615
  0
LINE
  8
0
 10
14.7093
 20
-16.4615
 11
14.6026
 21
-16.4361
  0
LINE
  8
0
 10
14.6026
 20
-16.4361
 11
14.498
 21
-16.403
  0
LINE
  8
0
 10
14.498
 20
-16.403
 11
14.3961
 21
-16.3623
  0
LINE
  8
0
 10
14.3961
 20
-16.3623
 11
14.2976
 21
-16.3141
  0
LINE
  8
0
 10
14.2976
 20
-16.3141
 11
14.2028
 21
-16.2589
  0
LINE
  8
0
 10
14.2028
 20
-16.2589
 11
14.1123
 21
-16.1969
  0
LINE
  8
0
 10
14.1123
 20
-16.1969
 11
14.0267
 21
-16.1283
  0
LINE
  8
0
 10
14.0267
 20
-16.1283
 11
13.9463
 21
-16.0536
  0
LINE
  8
0
 10
13.9463
 20
-16.0536
 11
13.8717
 21
-15.9733
  0
LINE
  8
0
 10
13.8717
 20
-15.9733
 11
13.8031
 21
-15.8876
  0
LINE
  8
0
 10
13.8031
 20
-15.8876
 11
13.7411
 21
-15.7972
  0
LINE
  8
0
 10
13.7411
 20
-15.7972
 11
13.6858
 21
-15.7024
  0
LINE
  8
0
 10
13.6858
 20
-15.7024
 11
13.6377
 21
-15.6038
  0
LINE
  8
0
 10
13.6377
 20
-15.6038
 11
13.597
 21
-15.502
  0
LINE
  8
0
 10
13.597
 20
-15.502
 11
13.5639
 21
-15.3974
  0
LINE
  8
0
 10
13.5639
 20
-15.3974
 11
13.5385
 21
-15.2907
  0
LINE
  8
0
 10
13.5385
 20
-15.2907
 11
13.5211
 21
-15.1824
  0
LINE
  8
0
 10
13.5211
 20
-15.1824
 11
13.5117
 21
-15.0731
  0
LINE
  8
0
 10
13.5117
 20
-15.0731
 11
13.5103
 21
-14.9634
  0
LINE
  8
0
 10
13.5103
 20
-14.9634
 11
13.5171
 21
-14.8539
  0
LINE
  8
0
 10
13.5171
 20
-14.8539
 11
13.5318
 21
-14.7452
  0
LINE
  8
0
 10
13.5318
 20
-14.7452
 11
13.5546
 21
-14.6379
  0
LINE
  8
0
 10
13.5546
 20
-14.6379
 11
13.5851
 21
-14.5326
  0
LINE
  8
0
 10
13.5851
 20
-14.5326
 11
13.6233
 21
-14.4298
  0
LINE
  8
0
 10
13.6233
 20
-14.4298
 11
13.669
 21
-14.33
  0
LINE
  8
0
 10
13.669
 20
-14.33
 11
13.7219
 21
-14.2339
  0
LINE
  8
0
 10
13.7219
 20
-14.2339
 11
13.7817
 21
-14.142
  0
LINE
  8
0
 10
13.7817
 20
-14.142
 11
13.8481
 21
-14.0547
  0
LINE
  8
0
 10
13.8481
 20
-14.0547
 11
13.9208
 21
-13.9725
  0
LINE
  8
0
 10
13.9208
 20
-13.9725
 11
13.9993
 21
-13.8959
  0
LINE
  8
0
 10
13.9993
 20
-13.8959
 11
14.0832
 21
-13.8253
  0
LINE
  8
0
 10
14.0832
 20
-13.8253
 11
14.1721
 21
-13.761
  0
LINE
  8
0
 10
14.1721
 20
-13.761
 11
14.2655
 21
-13.7035
  0
LINE
  8
0
 10
14.2655
 20
-13.7035
 11
14.3629
 21
-13.653
  0
LINE
  8
0
 10
14.3629
 20
-13.653
 11
14.4637
 21
-13.6097
  0
LINE
  8
0
 10
14.4637
 20
-13.6097
 11
14.5674
 21
-13.5741
  0
LINE
  8
0
 10
14.5674
 20
-13.5741
 11
14.6735
 21
-13.5461
  0
LINE
  8
0
 10
14.6735
 20
-13.5461
 11
14.7814
 21
-13.526
  0
LINE
  8
0
 10
14.7814
 20
-13.526
 11
14.8904
 21
-13.5139
  0
LINE
  8
0
 10
14.8904
 20
-13.5139
 11
15
 21
-13.5099
  0
LINE
  8
0
 10
15
 20
-13.5099
 11
15.1096
 21
-13.5139
  0
LINE
  8
0
 10
15.1096
 20
-13.5139
 11
15.2186
 21
-13.526
  0
LINE
  8
0
 10
15.2186
 20
-13.526
 11
15.3265
 21
-13.5461
  0
LINE
  8
0
 10
15.3265
 20
-13.5461
 11
15.4325
 21
-13.5741
  0
LINE
  8
0
 10
15.4325
 20
-13.5741
 11
15.5363
 21
-13.6097
  0
LINE
  8
0
 10
15.5363
 20
-13.6097
 11
15.6371
 21
-13.653
  0
LINE
  8
0
 10
15.6371
 20
-13.653
 11
15.7345
 21
-13.7035
  0
LINE
  8
0
 10
15.7345
 20
-13.7035
 11
15.8279
 21
-13.761
  0
LINE
  8
0
 10
15.8279
 20
-13.761
 11
15.9167
 21
-13.8253
  0
LINE
  8
0
 10
15.9167
 20
-13.8253
 11
16.0007
 21
-13.8959
  0
LINE
  8
0
 10
16.0007
 20
-13.8959
 11
16.0792
 21
-13.9725
  0
LINE
  8
0
 10
16.0792
 20
-13.9725
 11
16.1519
 21
-14.0547
  0
LINE
  8
0
 10
16.1519
 20
-14.0547
 11
16.2183
 21
-14.142
  0
LINE
  8
0
 10
16.2183
 20
-14.142
 11
16.2781
 21
-14.2339
  0
LINE
  8
0
 10
16.2781
 20
-14.2339
 11
16.331
 21
-14.33
  0
LINE
  8
0
 10
16.331
 20
-14.33
 11
16.3767
 21
-14.4298
  0
LINE
  8
0
 10
16.3767
 20
-14.4298
 11
16.4149
 21
-14.5326
  0
LINE
  8
0
 10
16.4149
 20
-14.5326
 11
16.4454
 21
-14.6379
  0
LINE
  8
0
 10
16.4454
 20
-14.6379
 11
16.4682
 21
-14.7452
  0
LINE
  8
0
 10
16.4682
 20
-14.7452
 11
16.4829
 21
-14.8539
  0
LINE
  8
0
 10
16.4829
 20
-14.8539
 11
16.4896
 21
-14.9634
  0
LINE
  8
0
 10
16.4896
 20
-14.9634
 11
16.4883
 21
-15.0731
  0
LINE
  8
0
 10
16.4883
 20
-15.0731
 11
16.4789
 21
-15.1824
  0
LINE
  8
0
 10
16.4789
 20
-15.1824
 11
16.4615
 21
-15.2907
  0
LINE
  8
0
 10
16.4615
 20
-15.2907
 11
16.4361
 21
-15.3974
  0
LINE
  8
0
 10
16.4361
 20
-15.3974
 11
16.403
 21
-15.502
  0
LINE
  8
0
 10
16.403
 20
-15.502
 11
16.3623
 21
-15.6038
  0
LINE
  8
0
 10
16.3623
 20
-15.6038
 11
16.3141
 21
-15.7024
  0
LINE
  8
0
 10
16.3141
 20
-15.7024
 11
16.2589
 21
-15.7972
  0
LINE
  8
0
 10
16.2589
 20
-15.7972
 11
16.1969
 21
-15.8876
  0
LINE
  8
0
 10
16.1969
 20
-15.8876
 11
16.1283
 21
-15.9733
  0
LINE
  8
0
 10
16.1283
 20
-15.9733
 11
16.0536
 21
-16.0536
  0
LINE
  8
0
 10
16.0536
 20
-16.0536
 11
15.9733
 21
-16.1283
  0
LINE
  8
0
 10
15.9733
 20
-16.1283
 11
15.8876
 21
-16.1969
  0
LINE
  8
0
 10
15.8876
 20
-16.1969
 11
15.7972
 21
-16.2589
  0
LINE
  8
0
 10
15.7972
 20
-16.2589
 11
15.7024
 21
-16.3141
  0
LINE
  8
0
 10
15.7024
 20
-16.3141
 11
15.6038
 21
-16.3623
  0
LINE
  8
0
 10
15.6038
 20
-16.3623
 11
15.502
 21
-16.403
  0
LINE
  8
0
 10
15.502
 20
-16.403
 11
15.3974
 21
-16.4361
  0
LINE
  8
0
 10
15.3974
 20
-16.4361
 11
15.2907
 21
-16.4615
  0
LINE
  8
0
 10
15.2907
 20
-16.4615
 11
15.1824
 21
-16.4789
  0
LINE
  8
0
 10
15.1824
 20
-16.4789
 11
15.0731
 21
-16.4883
  0
LINE
  8
0
 10
15.0731
 20
-16.4883
 11
15.0366
 21
-16.4896
  0
LINE
  8
0
 10
14.8554
 20
-20.14
 11
18.5786
 21
-16.7283
  0
LINE
  8
0
 10
18.5786
 20
-16.7283
 11
21.9903
 21
-20.4515
  0
LINE
  8
0
 10
21.9903
 20
-20.4515
 11
18.2671
 21
-23.8632
  0
LINE
  8
0
 10
18.2671
 20
-23.8632
 11
14.8554
 21
-20.14
  0
LINE
  8
0
 10
-21.8231
 20
-20.6614
 11
-18.4769
 21
-16.8792
  0
LINE
  8
0
 10
-18.4769
 20
-16.8792
 11
-14.6946
 21
-20.2254
  0
LINE
  8
0
 10
-14.6946
 20
-20.2254
 11
-18.0409
 21
-24.0076
  0
LINE
  8
0
 10
-18.0409
 20
-24.0076
 11
-21.8231
 21
-20.6614
  0
LINE
  8
0
 10
10.3434
 20
-22.7885
 11
14.6946
 21
-20.2254
  0
LINE
  8
0
 10
14.6946
 20
-20.2254
 11
17.2577
 21
-24.5766
  0
LINE
  8
0
 10
17.2577
 20
-24.5766
 11
12.9065
 21
-27.1397
  0
LINE
  8
0
 10
12.9065
 20
-27.1397
 11
10.3434
 21
-22.7885
  0
LINE
  8
0
 10
-17.0504
 20
-24.7472
 11
-14.5637
 21
-20.3519
  0
LINE
  8
0
 10
-14.5637
 20
-20.3519
 11
-10.1684
 21
-22.8386
  0
LINE
  8
0
 10
-10.1684
 20
-22.8386
 11
-12.6552
 21
-27.2339
  0
LINE
  8
0
 10
-12.6552
 20
-27.2339
 11
-17.0504
 21
-24.7472
  0
LINE
  8
0
 10
5.37938
 20
-24.441
 11
10.1684
 21
-22.8386
  0
LINE
  8
0
 10
10.1684
 20
-22.8386
 11
11.7708
 21
-27.6277
  0
LINE
  8
0
 10
11.7708
 20
-27.6277
 11
6.98177
 21
-29.2301
  0
LINE
  8
0
 10
6.98177
 20
-29.2301
 11
5.37938
 21
-24.441
  0
LINE
  8
0
 10
-11.5326
 20
-27.7514
 11
-10.0141
 21
-22.9351
  0
LINE
  8
0
 10
-10.0141
 20
-22.9351
 11
-5.19778
 21
-24.4537
  0
LINE
  8
0
 10
-5.19778
 20
-24.4537
 11
-6.71635
 21
-29.27
  0
LINE
  8
0
 10
-6.71635
 20
-29.27
 11
-11.5326
 21
-27.7514
  0
LINE
  8
0
 10
0.180252
 20
-25.0254
 11
5.19778
 21
-24.4537
  0
LINE
  8
0
 10
5.19778
 20
-24.4537
 11
5.76945
 21
-29.4712
  0
LINE
  8
0
 10
5.76945
 20
-29.4712
 11
0.751923
 21
-30.0429
  0
LINE
  8
0
 10
0.751923
 20
-30.0429
 11
0.180252
 21
-25.0254
  0
LINE
  8
0
 10
-5.51076
 20
-29.5427
 11
-5.02675
 21
-24.516
  0
LINE
  8
0
 10
-5.02675
 20
-24.516
 11
0
 21
-25
  0
LINE
  8
0
 10
0
 20
-25
 11
-0.484009
 21
-30.0267
  0
LINE
  8
0
 10
-0.484009
 20
-30.0267
 11
-5.51076
 21
-29.5427
  0
ENDSEC
  0
SECTION
  2
OBJECTS
  0
DICTIONARY
  0
ENDSEC
  0
EOF
